<?xml version="1.0" standalone="no"?>
<!DOCTYPE svg PUBLIC "-//W3C//DTD SVG 1.1//EN" "http://www.w3.org/Graphics/SVG/1.1/DTD/svg11.dtd" >
<svg>
<metadata>
Created by FontForge 20090622 at Sat Oct 10 06:46:47 2015
 By deploy user
Copyright &#194;&#169; 1988, 1990, 1993, 2003 Linotype Library GmbH, www.linotype.com. All rights reserved. Copyright &#194;&#169; 1988, 1990, 1993 Adobe Systems Incorporated. All Rights Reserved.
</metadata>
<defs>
<font id="HelveticaNeueLTPro-ThCn" horiz-adv-x="426" >
  <font-face 
    font-family="HelveticaNeueLT Pro 37 ThCn"
    font-weight="250"
    font-stretch="normal"
    units-per-em="1000"
    panose-1="2 11 4 6 2 2 2 3 2 4"
    ascent="714"
    descent="-286"
    x-height="523"
    cap-height="714"
    bbox="-163 -217 1000 920"
    underline-thickness="50"
    underline-position="-50"
    unicode-range="U+000D-U+FB02"
  />
<missing-glyph horiz-adv-x="512" 
d="M222 117h56v67h-56v-67zM225 234h46q0 52 6 72q6 19 43 52q37 34 50 60t13 60q0 59 -35 95t-89 36q-56 0 -92 -34t-43 -103l50 -8q11 95 82 95q31 0 53.5 -24.5t22.5 -60.5q0 -20 -9.5 -37t-40.5 -46q-31 -31 -46 -59q-13 -25 -13 -81zM462 50h-412v617h412v-617z
M512 718h-512v-718h512v718z" />
    <glyph glyph-name="IJ" unicode="IJ" horiz-adv-x="575" 
d="M61 0v714h42v-714h-42zM235 209v-22q0 -165 116 -165q53 0 87.5 32.5t34.5 108.5v551h42v-551q0 -86 -43.5 -130.5t-117.5 -44.5q-89 0 -125 53.5t-36 151.5v16h42z" />
    <glyph glyph-name="ij" unicode="ij" horiz-adv-x="305" 
d="M55 612v102h38v-102h-38zM55 0v523h38v-523h-38zM212 612v102h38v-102h-38zM119 -176v34q18 -2 28 -2q19 0 31.5 4t23 21.5t10.5 48.5v593h38v-589q0 -112 -95 -112q-12 0 -36 2z" />
    <glyph glyph-name="napostrophe" unicode="&#x22;n" horiz-adv-x="417" 
d="M61 0v523h38v-79h2q16 39 49.5 65t83.5 26q60 0 96 -35t36 -106v-394h-38v376q0 67 -26.5 96t-77.5 29q-58 0 -91.5 -47t-33.5 -119v-335h-38zM33 714v87h47v-85q0 -56 -52 -69v20q26 11 26 47h-21z" />
    <glyph glyph-name="fi" unicode="fi" horiz-adv-x="370" 
d="M277 612v102h38v-102h-38zM277 0v523h38v-523h-38zM79 0v489h-71v34h71v87q0 104 92 104q26 0 39 -3v-34q-14 3 -33 3q-60 0 -60 -68v-89h87v-34h-87v-489h-38z" />
    <glyph glyph-name="fl" unicode="fl" horiz-adv-x="370" 
d="M277 0v714h38v-714h-38zM79 0v489h-71v34h71v87q0 104 92 104q26 0 39 -3v-34q-14 3 -33 3q-60 0 -60 -68v-89h87v-34h-87v-489h-38z" />
    <glyph glyph-name=".notdef" horiz-adv-x="512" 
d="M222 117h56v67h-56v-67zM225 234h46q0 52 6 72q6 19 43 52q37 34 50 60t13 60q0 59 -35 95t-89 36q-56 0 -92 -34t-43 -103l50 -8q11 95 82 95q31 0 53.5 -24.5t22.5 -60.5q0 -20 -9.5 -37t-40.5 -46q-31 -31 -46 -59q-13 -25 -13 -81zM462 50h-412v617h412v-617z
M512 718h-512v-718h512v718z" />
    <glyph glyph-name=".null" horiz-adv-x="500" 
 />
    <glyph glyph-name=".null" horiz-adv-x="500" 
 />
    <glyph glyph-name="nonmarkingreturn" horiz-adv-x="333" 
 />
    <glyph glyph-name="CR" unicode="&#xd;" horiz-adv-x="0" 
 />
    <glyph glyph-name="space" unicode=" " horiz-adv-x="240" 
 />
    <glyph glyph-name="exclam" unicode="!" horiz-adv-x="222" 
d="M90 0v96h42v-96h-42zM90 714h42v-230l-6 -298h-30l-6 298v230z" />
    <glyph glyph-name="quotedbl" unicode="&#x22;" horiz-adv-x="296" 
d="M187 486v228h34v-228h-34zM75 486v228h34v-228h-34z" />
    <glyph glyph-name="numbersign" unicode="#" horiz-adv-x="480" 
d="M296 259l25 178h-137l-25 -178h137zM292 225h-137l-31 -225h-34l31 225h-108v34h112l25 178h-109v34h113l31 225h34l-31 -225h137l31 225h34l-31 -225h108v-34h-112l-25 -178h109v-34h-113l-31 -225h-34z" />
    <glyph glyph-name="dollar" unicode="$" horiz-adv-x="480" 
d="M225 -96v84q-54 1 -93.5 19t-59.5 48t-29 62.5t-9 68.5v22h42v-24q0 -152 149 -162v326l-35 12q-69 24 -105.5 62.5t-36.5 104.5q0 81 48.5 130t128.5 51v70h30v-70q175 -10 175 -187h-42q0 143 -133 153v-294l42 -14q77 -26 113 -66.5t36 -116.5q0 -88 -53 -139.5
t-138 -55.5v-84h-30zM225 390v284q-59 -4 -97 -39t-38 -104q0 -58 29 -88.5t92 -48.5zM255 338v-316q66 6 107.5 48.5t41.5 109.5q0 65 -31.5 98t-94.5 53z" />
    <glyph glyph-name="percent" unicode="%" horiz-adv-x="685" 
d="M55 531q0 177 122 177q69 0 95.5 -43t26.5 -134q0 -177 -122 -177q-69 0 -95.5 42.5t-26.5 134.5zM386 165q0 177 122 177q69 0 95.5 -43t26.5 -134q0 -177 -122 -177q-69 0 -95.5 42.5t-26.5 134.5zM89 531q0 -83 22 -115t66 -32q42 0 64 32t24 115q0 83 -22 115t-66 32
q-88 0 -88 -147zM172 -12l303 720h34l-303 -720h-34zM420 165q0 -83 22 -115t66 -32q42 0 64 32t24 115q0 83 -22 115t-66 32q-88 0 -88 -147z" />
    <glyph glyph-name="ampersand" unicode="&#x26;" horiz-adv-x="537" 
d="M387 130l-177 247l-44 -35q-51 -40 -77.5 -79t-26.5 -87q0 -67 43 -110.5t109 -43.5q56 0 101 31.5t72 76.5zM218 427l34 25q40 36 58.5 65.5t18.5 71.5q0 41 -26 66t-67 25q-46 0 -71.5 -27t-25.5 -71q0 -23 15 -56t34 -59zM481 0l-72 100q-77 -112 -200 -112
q-93 0 -141 55.5t-48 126.5q0 67 30.5 109.5t97.5 93.5l42 32l-33 45q-56 76 -56 138q0 55 38.5 90.5t95.5 35.5q64 0 98 -37t34 -87q0 -90 -101 -170l-28 -23l165 -230q27 55 27 132h38q0 -91 -41 -165l96 -134h-42z" />
    <glyph glyph-name="quotesingle" unicode="'" horiz-adv-x="184" 
d="M75 486v228h34v-228h-34z" />
    <glyph glyph-name="parenleft" unicode="(" horiz-adv-x="222" 
d="M220 -184h-30q-124 203 -124 449t124 449h30q-53 -86 -86.5 -205t-33.5 -244t33.5 -244t86.5 -205z" />
    <glyph glyph-name="parenright" unicode=")" horiz-adv-x="222" 
d="M2 714h30q124 -203 124 -449t-124 -449h-30q53 86 86.5 205t33.5 244t-33.5 244t-86.5 205z" />
    <glyph glyph-name="asterisk" unicode="*" horiz-adv-x="296" 
d="M30 617l12 30l92 -44v111h30v-111l90 44l12 -28l-87 -42l59 -80l-26 -19l-63 88l-66 -88l-26 19l62 80z" />
    <glyph glyph-name="plus" unicode="+" horiz-adv-x="600" 
d="M283 0v236h-236v34h236v236h34v-236h236v-34h-236v-236h-34z" />
    <glyph glyph-name="comma" unicode="," horiz-adv-x="240" 
d="M99 0v102h42v-100q0 -57 -13 -84t-45 -46v34q28 21 28 94h-12z" />
    <glyph glyph-name="hyphen" unicode="-" horiz-adv-x="315" 
d="M63 255v34h189v-34h-189z" />
    <glyph glyph-name="period" unicode="." horiz-adv-x="240" 
d="M99 0v102h42v-102h-42z" />
    <glyph glyph-name="slash" unicode="/" horiz-adv-x="278" 
d="M-9 -12l256 738h40l-256 -738h-40z" />
    <glyph glyph-name="zero" unicode="0" horiz-adv-x="480" 
d="M42 348q0 186 47.5 273t150.5 87q109 0 153.5 -84.5t44.5 -275.5q0 -192 -48 -276t-150 -84q-107 0 -152.5 85.5t-45.5 274.5zM84 348q0 -131 19.5 -204t51.5 -97.5t85 -24.5t85 25.5t51.5 98.5t19.5 202q0 39 -0.5 60.5t-3.5 61t-8.5 63.5t-17 54t-27.5 46.5t-41.5 28.5
t-57.5 12t-57.5 -13t-41.5 -31.5t-27.5 -50t-17 -56.5t-8.5 -63.5t-3.5 -58.5t-0.5 -53z" />
    <glyph glyph-name="one" unicode="1" horiz-adv-x="480" 
d="M244 0v636q-26 -30 -75.5 -55t-93.5 -29v34q55 6 106 41t67 81h34v-708h-38z" />
    <glyph glyph-name="two" unicode="2" horiz-adv-x="480" 
d="M434 0h-388q0 149 123 247l101 80q56 45 86 88.5t30 103.5q0 70 -38 112.5t-106 42.5q-75 0 -112 -52.5t-37 -128.5h-42q0 94 51 154.5t144 60.5q30 0 59.5 -9t58.5 -29t46.5 -59t17.5 -93q0 -72 -31 -118t-99 -100l-94 -75q-49 -40 -82.5 -91.5t-33.5 -95.5h346v-38z
" />
    <glyph glyph-name="three" unicode="3" horiz-adv-x="480" 
d="M199 353v34h31q143 0 143 144q0 67 -35.5 105t-100.5 38q-71 0 -104 -45t-36 -112h-42q0 85 49.5 138t134.5 53q79 0 127.5 -46.5t48.5 -129.5q0 -61 -31 -105.5t-89 -56.5v-2q65 -6 104 -54t39 -115q0 -94 -55 -152.5t-152 -58.5q-89 0 -137 53t-52 143h42
q0 -69 38.5 -115.5t110.5 -46.5q70 0 116.5 44t46.5 132q0 72 -42 113.5t-124 41.5h-31z" />
    <glyph glyph-name="four" unicode="4" horiz-adv-x="480" 
d="M322 0v191h-289v38l285 479h42v-483h87v-34h-87v-191h-38zM322 225v418h-2l-249 -418h251z" />
    <glyph glyph-name="five" unicode="5" horiz-adv-x="480" 
d="M55 331l42 365h305v-38h-273l-34 -281h2q21 38 60.5 60t86.5 22q94 0 143 -63t49 -162q0 -105 -51 -175.5t-152 -70.5q-95 0 -142 54t-47 128v7h42v-12q5 -65 43 -104t100 -39q83 0 124 59t41 150q0 85 -40.5 139.5t-113.5 54.5q-97 0 -143 -94h-42z" />
    <glyph glyph-name="six" unicode="6" horiz-adv-x="480" 
d="M92 217q0 -77 37 -136t112 -59q73 0 114 52.5t41 153.5q0 84 -38 137t-113 53q-77 0 -115 -55.5t-38 -145.5zM419 547h-42q0 49 -32.5 88t-95.5 39q-169 0 -169 -344v-13h2q15 55 55.5 95t112.5 40q87 0 137.5 -58.5t50.5 -165.5q0 -109 -50.5 -174.5t-148.5 -65.5
q-50 0 -86.5 19.5t-57.5 49.5t-33 76t-16 89t-4 97q0 68 4.5 121t18.5 105t36.5 86.5t61 55.5t90.5 21q47 0 82 -18t52 -45.5t24.5 -52t7.5 -45.5z" />
    <glyph glyph-name="seven" unicode="7" horiz-adv-x="480" 
d="M437 696v-38q-85 -96 -149.5 -235t-91.5 -247.5t-27 -175.5h-46q0 117 80 321t196 337h-356v38h394z" />
    <glyph glyph-name="eight" unicode="8" horiz-adv-x="480" 
d="M42 191q0 79 38.5 128.5t100.5 58.5v2q-56 11 -86.5 54t-30.5 101q0 79 47 126t129 47q83 0 129.5 -47t46.5 -126q0 -58 -28.5 -99.5t-85.5 -55.5v-2q64 -9 100 -58t36 -129q0 -94 -53 -148.5t-146 -54.5q-92 0 -144.5 54.5t-52.5 148.5zM84 191q0 -79 41.5 -124
t114.5 -45q70 0 113 45.5t43 123.5q0 87 -41 129.5t-115 42.5q-69 0 -112.5 -44t-43.5 -128zM374 535q0 62 -35 100.5t-99 38.5t-99 -38.5t-35 -100.5q0 -65 36.5 -101.5t97.5 -36.5q63 0 98.5 36t35.5 102z" />
    <glyph glyph-name="nine" unicode="9" horiz-adv-x="480" 
d="M388 479q0 77 -37 136t-112 59q-73 0 -114 -52.5t-41 -153.5q0 -84 38 -137t113 -53q76 0 114.5 55.5t38.5 145.5zM61 149h42q0 -49 32.5 -88t95.5 -39q169 0 169 344v14h-2q-15 -56 -55 -96t-113 -40q-87 0 -137.5 58.5t-50.5 165.5q0 109 50.5 174.5t148.5 65.5
q50 0 86.5 -19.5t57.5 -49.5t33 -76t16 -89t4 -97q0 -68 -4.5 -121t-18 -105.5t-36.5 -86.5t-61.5 -55t-90.5 -21q-47 0 -82 18t-52 45.5t-24.5 52t-7.5 45.5z" />
    <glyph glyph-name="colon" unicode=":" horiz-adv-x="240" 
d="M99 395v102h42v-102h-42zM99 0v102h42v-102h-42z" />
    <glyph glyph-name="semicolon" unicode=";" horiz-adv-x="240" 
d="M99 395v102h42v-102h-42zM99 0v102h42v-100q0 -57 -13 -84t-45 -46v34q28 21 28 94h-12z" />
    <glyph glyph-name="semicolon" unicode="&#x37e;" horiz-adv-x="240" 
d="M99 395v102h42v-102h-42zM99 0v102h42v-100q0 -57 -13 -84t-45 -46v34q28 21 28 94h-12z" />
    <glyph glyph-name="less" unicode="&#x3c;" horiz-adv-x="600" 
d="M47 236v34l506 242v-30l-476 -229l476 -229v-30z" />
    <glyph glyph-name="equal" unicode="=" horiz-adv-x="600" 
d="M47 138v34h506v-34h-506zM47 334v34h506v-34h-506z" />
    <glyph glyph-name="greater" unicode="&#x3e;" horiz-adv-x="600" 
d="M553 270v-34l-506 -242v30l476 229l-476 229v30z" />
    <glyph glyph-name="question" unicode="?" 
d="M183 0v96h42v-96h-42zM183 183v50q0 47 17 83.5t41.5 60.5l49 48t41.5 58t17 77q0 62 -35 97t-96 35q-51 0 -84 -26t-45 -62.5t-12 -81.5v-13h-42v16q0 35 9.5 68.5t29.5 64.5t57 49.5t86 18.5q90 0 132 -49.5t42 -114.5q0 -50 -17 -87.5t-41.5 -61.5l-49 -47t-41.5 -56
t-17 -75v-52h-42z" />
    <glyph glyph-name="at" unicode="@" horiz-adv-x="800" 
d="M572 557h42l-95 -292q-16 -48 -16 -59q0 -15 12 -25t28 -10q70 0 127 78.5t57 172.5q0 122 -93 196t-217 74q-142 0 -243 -100t-101 -239q0 -94 50.5 -171t129.5 -118.5t166 -41.5q86 0 161.5 39.5t124.5 108.5h42q-48 -83 -137.5 -132.5t-190.5 -49.5q-167 0 -277.5 106
t-110.5 266q0 155 112.5 260.5t271.5 105.5q152 0 253 -85t101 -220q0 -109 -77 -196.5t-163 -87.5q-29 0 -48.5 18t-19.5 52h-2q-54 -70 -139 -70q-59 0 -96.5 43t-37.5 105q0 108 71 200t174 92q48 0 78.5 -26.5t36.5 -63.5h2zM228 288q0 -56 28 -86.5t77 -30.5
q74 0 130.5 90t56.5 167q0 115 -95 115q-84 0 -140.5 -83t-56.5 -172z" />
    <glyph glyph-name="A" unicode="A" horiz-adv-x="481" 
d="M443 0l-68 222h-269l-68 -222h-42l222 714h53l214 -714h-42zM367 256l-123 416h-2l-126 -416h251z" />
    <glyph glyph-name="B" unicode="B" horiz-adv-x="500" 
d="M103 34h141q90 0 133.5 37t43.5 124q0 89 -47.5 125.5t-131.5 36.5h-139v-323zM103 391h137q72 0 115 36t43 109q0 144 -140 144h-155v-289zM61 0v714h192q187 0 187 -178q0 -70 -35 -111t-97 -49v-2q76 -6 115.5 -54.5t39.5 -125.5q0 -91 -54.5 -142.5t-149.5 -51.5
h-198z" />
    <glyph glyph-name="C" unicode="C" horiz-adv-x="500" 
d="M467 509h-42q0 77 -40.5 130t-115.5 53q-101 0 -145 -86.5t-44 -247.5q0 -76 8.5 -134t28.5 -105t57 -72t89 -25q48 0 84 25.5t53.5 63.5t25.5 70.5t8 58.5h42q0 -28 -5.5 -58.5t-21 -66t-39 -63t-63.5 -46t-91 -18.5q-218 0 -218 368q0 370 229 370q48 0 85 -16t58 -40
t34.5 -55t18 -56.5t4.5 -49.5z" />
    <glyph glyph-name="D" unicode="D" horiz-adv-x="519" 
d="M61 0v714h163q61 0 104.5 -15t80 -53t54.5 -110t18 -179q0 -85 -14 -149.5t-37 -103t-57 -62.5t-69.5 -33t-79.5 -9h-163zM103 34h121q113 0 164 78.5t51 244.5q0 170 -47.5 246.5t-167.5 76.5h-121v-646z" />
    <glyph glyph-name="E" unicode="E" 
d="M61 0v714h341v-38h-299v-285h279v-38h-279v-315h308v-38h-350z" />
    <glyph glyph-name="F" unicode="F" horiz-adv-x="407" 
d="M61 0v714h342v-38h-300v-285h279v-38h-279v-353h-42z" />
    <glyph glyph-name="G" unicode="G" horiz-adv-x="519" 
d="M447 0v144h-2q-18 -74 -66 -115t-122 -41q-219 0 -219 368q0 370 229 370q48 0 85 -16t58 -40t34.5 -55t18 -56.5t4.5 -49.5h-42q0 77 -40.5 130t-115.5 53q-101 0 -145 -86.5t-44 -247.5q0 -76 8.5 -134t28.5 -105t57 -72t89 -25q64 0 105 39.5t56 94.5t15 123v44h-196
v34h238v-357h-34z" />
    <glyph glyph-name="H" unicode="H" horiz-adv-x="519" 
d="M61 0v714h42v-313h313v313h42v-714h-42v363h-313v-363h-42z" />
    <glyph glyph-name="I" unicode="I" horiz-adv-x="164" 
d="M61 0v714h42v-714h-42z" />
    <glyph glyph-name="J" unicode="J" horiz-adv-x="407" 
d="M66 209v-22q0 -165 116 -165q53 0 87.5 32.5t34.5 108.5v551h42v-551q0 -86 -43.5 -130.5t-117.5 -44.5q-89 0 -125 53.5t-36 151.5v16h42z" />
    <glyph glyph-name="K" unicode="K" horiz-adv-x="463" 
d="M61 0v714h42v-397h2l295 397h46l-224 -301l246 -413h-48l-225 378l-92 -122v-256h-42z" />
    <glyph glyph-name="L" unicode="L" 
d="M61 0v714h42v-676h299v-38h-341z" />
    <glyph glyph-name="M" unicode="M" horiz-adv-x="648" 
d="M552 0v660h-2l-205 -660h-42l-205 660h-2v-660h-42v714h68l203 -642h2l198 642h69v-714h-42z" />
    <glyph glyph-name="N" unicode="N" horiz-adv-x="519" 
d="M54 714h56l311 -648h2v648h42v-714h-55l-312 648h-2v-648h-42v714z" />
    <glyph glyph-name="O" unicode="O" horiz-adv-x="537" 
d="M269 692q-189 0 -189 -335q0 -105 15.5 -175.5t58.5 -115t115 -44.5q98 0 143 81.5t45 253.5q0 158 -43 246.5t-145 88.5zM269 726q112 0 171 -85t59 -284q0 -111 -21 -188.5t-57 -114.5t-72.5 -51.5t-79.5 -14.5q-231 0 -231 369t231 369z" />
    <glyph glyph-name="P" unicode="P" horiz-adv-x="463" 
d="M103 352h138q69 0 113 40.5t44 123.5q0 78 -39.5 121t-111.5 43h-144v-328zM61 0v714h185q59 -1 100 -20.5t60 -52t26.5 -62t7.5 -63.5q0 -92 -53.5 -145t-149.5 -53h-134v-318h-42z" />
    <glyph glyph-name="Q" unicode="Q" horiz-adv-x="537" 
d="M481 -37l-75 76q-55 -51 -137 -51q-231 0 -231 369t231 369q112 0 171 -85t59 -284q0 -201 -69 -291l76 -78zM319 177l85 -85q53 83 53 265q0 158 -43 246.5t-145 88.5q-189 0 -189 -335q0 -105 15.5 -175.5t58.5 -115t115 -44.5q66 0 113 41l-88 89z" />
    <glyph glyph-name="R" unicode="R" horiz-adv-x="500" 
d="M103 365h134q168 0 168 162q0 72 -37.5 112.5t-103.5 40.5h-161v-315zM61 0v714h209q79 0 128 -47t49 -140q0 -73 -37.5 -121t-105.5 -56v-2q81 -6 109.5 -49.5t28.5 -127.5v-75q0 -59 24 -96h-48q-18 34 -18 97v73q0 82 -30.5 121.5t-112.5 39.5h-154v-331h-42z" />
    <glyph glyph-name="S" unicode="S" horiz-adv-x="481" 
d="M77 220v-37q0 -70 43.5 -115.5t118.5 -45.5q73 0 119 46.5t46 115.5q0 65 -31 96.5t-99 56.5l-81 28q-75 25 -110 65t-35 110q0 85 53 135.5t138 50.5q96 0 143.5 -51t47.5 -143h-42q0 75 -36 117.5t-109 42.5q-67 0 -110 -35t-43 -113q0 -103 105 -138l106 -37
q74 -26 109.5 -66.5t35.5 -115.5q0 -93 -59.5 -146t-147.5 -53q-58 0 -100.5 18.5t-63.5 48.5t-30.5 59.5t-9.5 58.5v47h42z" />
    <glyph glyph-name="T" unicode="T" 
d="M192 0v676h-190v38h422v-38h-190v-676h-42z" />
    <glyph glyph-name="U" unicode="U" horiz-adv-x="500" 
d="M94 714v-525q0 -167 156 -167q76 0 116 45t40 122v525h42v-517q0 -111 -56.5 -160t-141.5 -49q-198 0 -198 209v517h42z" />
    <glyph glyph-name="V" unicode="V" horiz-adv-x="444" 
d="M196 0l-195 714h42l178 -666h2l178 666h42l-195 -714h-52z" />
    <glyph glyph-name="W" unicode="W" horiz-adv-x="704" 
d="M485 0l-132 654h-2l-135 -654h-50l-155 714h42l137 -654h2l134 654h51l135 -654h2l137 654h42l-156 -714h-52z" />
    <glyph glyph-name="X" unicode="X" horiz-adv-x="463" 
d="M409 0l-178 324l-178 -324h-45l202 363l-185 351h42l166 -309l168 309h42l-188 -351l200 -363h-46z" />
    <glyph glyph-name="Y" unicode="Y" horiz-adv-x="444" 
d="M201 0v294l-195 420h46l170 -376l174 376h42l-195 -420v-294h-42z" />
    <glyph glyph-name="Z" unicode="Z" horiz-adv-x="443" 
d="M17 0v42l363 634h-342v38h384v-42l-363 -634h367v-38h-409z" />
    <glyph glyph-name="bracketleft" unicode="[" horiz-adv-x="222" 
d="M82 -184v898h134v-30h-100v-838h100v-30h-134z" />
    <glyph glyph-name="backslash" unicode="\" horiz-adv-x="278" 
d="M31 726l256 -738h-40l-256 738h40z" />
    <glyph glyph-name="bracketright" unicode="]" horiz-adv-x="222" 
d="M140 714v-898h-134v30h100v838h-100v30h134z" />
    <glyph glyph-name="asciicircum" unicode="^" horiz-adv-x="600" 
d="M47 243l236 453h34l236 -453h-30l-223 427l-223 -427h-30z" />
    <glyph glyph-name="underscore" unicode="_" horiz-adv-x="500" 
d="M500 -125h-500v50h500v-50z" />
    <glyph glyph-name="grave" unicode="`" horiz-adv-x="148" 
d="M38 736l78 -140h-33l-93 140h48z" />
    <glyph glyph-name="a" unicode="a" horiz-adv-x="389" 
d="M294 197v108h-2q-9 -15 -21.5 -21t-44.5 -14l-77 -21q-45 -13 -64 -40t-19 -75q0 -112 96 -112q65 0 98.5 47t33.5 128zM332 397v-334q0 -35 23 -35q14 0 24 5v-30q-12 -9 -40 -9q-15 0 -30 14.5t-15 42.5v33h-2q-12 -42 -48.5 -69t-88.5 -27q-66 0 -98.5 40.5
t-32.5 105.5q0 60 25 94.5t81 49.5l113 31q32 9 41.5 25t9.5 52q0 66 -26.5 90.5t-74.5 24.5q-114 0 -114 -127h-38q0 30 6.5 56t21.5 51t46 39.5t74 14.5q80 0 111.5 -37t31.5 -101z" />
    <glyph glyph-name="b" unicode="b" 
d="M226 501q-71 0 -103 -58t-32 -180q0 -119 30 -180t98 -61q49 0 78.5 34t39 84t9.5 123q0 125 -27.5 181.5t-92.5 56.5zM53 0v714h38v-283h2q35 104 134 104q48 0 80.5 -20t49.5 -59t24 -85t7 -108q0 -275 -163 -275q-54 0 -88 29.5t-44 83.5h-2v-101h-38z" />
    <glyph glyph-name="c" unicode="c" horiz-adv-x="389" 
d="M327 171h42q0 -23 -7 -50t-23 -59t-50.5 -53t-81.5 -21q-94 0 -131.5 72.5t-37.5 203.5q0 271 176 271q44 0 76.5 -19.5t47.5 -48.5t21.5 -52.5t6.5 -41.5h-42q0 15 -5 34t-16 41.5t-34.5 37.5t-55.5 15q-70 0 -101.5 -60.5t-31.5 -178.5q0 -125 30.5 -182.5t102.5 -57.5
q34 0 58 17t35.5 43.5t16 48.5t4.5 40z" />
    <glyph glyph-name="d" unicode="d" 
d="M80 263q0 -73 9.5 -123t39 -84t78.5 -34q68 0 98 61t30 180q0 238 -130 238q-67 0 -96 -57.5t-29 -180.5zM335 0v101h-2q-10 -54 -44 -83.5t-88 -29.5q-163 0 -163 275q0 131 37 201.5t128 70.5q95 0 130 -104h2v283h38v-714h-38z" />
    <glyph glyph-name="e" unicode="e" horiz-adv-x="407" 
d="M376 264h-296q0 -26 0.5 -40.5t2.5 -43.5t6.5 -47t13.5 -41.5t21.5 -37t33 -23t45.5 -9.5q38 0 65.5 17t40 43.5t17.5 48t5 40.5h38q0 -70 -40.5 -126.5t-121.5 -56.5q-96 0 -132.5 72t-36.5 216q0 123 44 191t131 68q89 0 126 -68.5t37 -202.5zM80 298h254
q0 41 -4.5 72.5t-16.5 63.5t-37.5 49.5t-64.5 17.5q-41 0 -69 -21t-40.5 -56t-17 -64.5t-4.5 -61.5z" />
    <glyph glyph-name="f" unicode="f" horiz-adv-x="204" 
d="M79 0v489h-71v34h71v87q0 104 92 104q26 0 39 -3v-34q-14 3 -33 3q-60 0 -60 -68v-89h87v-34h-87v-489h-38z" />
    <glyph glyph-name="g" unicode="g" 
d="M373 523v-494q0 -104 -38 -158.5t-130 -54.5q-38 0 -66 11.5t-42 26.5t-22 35t-10 32.5t-2 24.5h38q0 -43 27 -69.5t81 -26.5q66 0 96 38.5t30 121.5v96h-3q-7 -21 -15.5 -36.5t-23.5 -33t-40 -27t-58 -9.5q-157 0 -157 264q0 47 4 84t14.5 73t28.5 60t48 39t70 15
q98 0 130 -99h2v87h38zM80 264q0 -110 28.5 -170t98.5 -60q128 0 128 238q0 229 -123 229q-66 0 -99 -54t-33 -183z" />
    <glyph glyph-name="h" unicode="h" horiz-adv-x="407" 
d="M51 0v714h38v-270h2q16 39 49.5 65t83.5 26q60 0 96 -35t36 -106v-394h-38v376q0 67 -26.5 96t-77.5 29q-58 0 -91.5 -47t-33.5 -119v-335h-38z" />
    <glyph glyph-name="i" unicode="i" horiz-adv-x="148" 
d="M55 612v102h38v-102h-38zM55 0v523h38v-523h-38z" />
    <glyph glyph-name="j" unicode="j" horiz-adv-x="148" 
d="M55 612v102h38v-102h-38zM-38 -176v34q18 -2 28 -2q19 0 31.5 4t23 21.5t10.5 48.5v593h38v-589q0 -112 -95 -112q-12 0 -36 2z" />
    <glyph glyph-name="k" unicode="k" horiz-adv-x="389" 
d="M51 0v714h38v-469h2l226 278h48l-162 -194l191 -329h-48l-170 295l-87 -103v-192h-38z" />
    <glyph glyph-name="l" unicode="l" horiz-adv-x="148" 
d="M55 0v714h38v-714h-38z" />
    <glyph glyph-name="m" unicode="m" horiz-adv-x="648" 
d="M57 0v523h38v-78h2q11 42 44.5 66t81.5 24q97 0 113 -98h2q8 36 40.5 67t87.5 31q62 0 93.5 -34.5t31.5 -98.5v-402h-38v393q0 52 -24 80t-66 28q-58 0 -89 -42t-31 -112v-347h-38v375q0 126 -92 126q-58 0 -88 -43.5t-30 -110.5v-347h-38z" />
    <glyph glyph-name="n" unicode="n" horiz-adv-x="407" 
d="M51 0v523h38v-79h2q16 39 49.5 65t83.5 26q60 0 96 -35t36 -106v-394h-38v376q0 67 -26.5 96t-77.5 29q-58 0 -91.5 -47t-33.5 -119v-335h-38z" />
    <glyph glyph-name="o" unicode="o" 
d="M346 261q0 119 -30.5 179.5t-102.5 60.5t-102.5 -60.5t-30.5 -179.5q0 -118 30.5 -178.5t102.5 -60.5t102.5 60.5t30.5 178.5zM388 262q0 -61 -8 -107.5t-27 -85.5t-55 -60t-88 -21q-50 0 -85 21t-53 60t-26 85.5t-8 107.5t8 107t27 85t55 60t88 21q50 0 85 -21t53 -60
t26 -85.5t8 -106.5z" />
    <glyph glyph-name="p" unicode="p" 
d="M91 263q0 -119 30 -180t98 -61q49 0 78.5 34t39 84t9.5 123q0 121 -32 179.5t-88 58.5q-71 0 -103 -58t-32 -180zM53 -176v699h38v-92h2q35 104 134 104q161 0 161 -272q0 -275 -163 -275q-54 0 -88 29.5t-44 83.5h-2v-277h-38z" />
    <glyph glyph-name="q" unicode="q" 
d="M80 263q0 -73 9.5 -123t39 -84t78.5 -34q68 0 98 61t30 180q0 238 -130 238q-125 0 -125 -238zM335 -176v277h-2q-10 -54 -44 -83.5t-88 -29.5q-163 0 -163 275q0 61 7.5 107.5t25.5 85t51 59t81 20.5q95 0 130 -104h2v92h38v-699h-38z" />
    <glyph glyph-name="r" unicode="r" horiz-adv-x="241" 
d="M51 0v523h38v-91h2q33 103 131 103h22v-34h-22q-62 0 -97.5 -50t-35.5 -119v-332h-38z" />
    <glyph glyph-name="s" unicode="s" horiz-adv-x="352" 
d="M313 376h-38v15q0 110 -98 110q-45 0 -73 -24t-28 -73q0 -41 18.5 -64t59.5 -39l80 -30q95 -36 95 -139q0 -64 -43.5 -104t-107.5 -40q-155 0 -155 165v14h38v-17q0 -128 117 -128q55 0 82 31t27 78q0 40 -17.5 65t-60.5 42l-77 31q-51 21 -74.5 51.5t-23.5 79.5
q0 64 39 99.5t104 35.5q136 0 136 -143v-16z" />
    <glyph glyph-name="t" unicode="t" horiz-adv-x="204" 
d="M8 489v34h71v155h38v-155h87v-34h-87v-403q0 -58 46 -58q27 0 47 6v-34q-28 -6 -54 -6q-77 0 -77 88v407h-71z" />
    <glyph glyph-name="u" unicode="u" horiz-adv-x="407" 
d="M356 523v-523h-38v79h-2q-38 -91 -133 -91q-60 0 -96 35t-36 106v394h38v-376q0 -67 26.5 -96t77.5 -29q58 0 91.5 47t33.5 119v335h38z" />
    <glyph glyph-name="v" unicode="v" horiz-adv-x="352" 
d="M201 0h-45l-147 523h42l127 -475h2l121 475h42z" />
    <glyph glyph-name="w" unicode="w" horiz-adv-x="537" 
d="M370 0l-99 469h-2l-103 -469h-48l-112 523h42l93 -469h2l103 469h48l99 -469h2l94 469h42l-113 -523h-48z" />
    <glyph glyph-name="x" unicode="x" horiz-adv-x="352" 
d="M13 0l141 269l-134 254h47l110 -222l113 222h42l-133 -254l140 -269h-47l-117 236l-120 -236h-42z" />
    <glyph glyph-name="y" unicode="y" horiz-adv-x="352" 
d="M185 54l116 469h42l-162 -601q-15 -53 -42 -75.5t-74 -22.5q-13 0 -39 2v34q30 -2 33 -2q38 0 56 16t32 66l16 55l-154 528h42l132 -469h2z" />
    <glyph glyph-name="z" unicode="z" horiz-adv-x="334" 
d="M15 0v34l259 455h-245v34h287v-34l-259 -455h262v-34h-304z" />
    <glyph glyph-name="braceleft" unicode="{" horiz-adv-x="222" 
d="M29 250v30q71 0 71 148v168q0 65 21.5 91.5t65.5 26.5h49v-30h-51q-28 0 -39.5 -21t-11.5 -67v-166q0 -48 -8 -82.5t-21 -50.5t-22.5 -22.5t-19.5 -8.5v-2q71 -19 71 -163v-167q0 -46 11.5 -67t39.5 -21h51v-30h-49q-44 0 -65.5 26.5t-21.5 91.5v168q0 148 -71 148z" />
    <glyph glyph-name="bar" unicode="|" horiz-adv-x="222" 
d="M92 -12v738h38v-738h-38z" />
    <glyph glyph-name="braceright" unicode="}" horiz-adv-x="222" 
d="M193 280v-30q-71 0 -71 -148v-168q0 -65 -21.5 -91.5t-65.5 -26.5h-49v30h51q28 0 39.5 21t11.5 67v166q0 145 71 164v2q-10 2 -19.5 8t-22.5 22t-21 50.5t-8 82.5v167q0 46 -11.5 67t-39.5 21h-51v30h49q44 0 65.5 -26.5t21.5 -91.5v-168q0 -148 71 -148z" />
    <glyph glyph-name="asciitilde" unicode="~" horiz-adv-x="600" 
d="M95 199l-23 22q18 28 30 42.5t36 27.5t56 13q40 0 110 -34t108 -34q22 0 43 15t26.5 23l23.5 33l23 -22q-18 -28 -30 -42.5t-36 -27.5t-56 -13q-40 0 -110 34t-108 34q-9 0 -17.5 -2t-15 -5t-13.5 -8.5t-11.5 -9.5t-11 -12t-9 -11.5l-8.5 -12t-7 -10.5z" />
    <glyph glyph-name="uni00A0" unicode="&#xa0;" horiz-adv-x="240" 
 />
    <glyph glyph-name="exclamdown" unicode="&#xa1;" horiz-adv-x="222" 
d="M90 542h42v-96h-42v96zM96 360h30l6 -298v-234h-42v234z" />
    <glyph glyph-name="cent" unicode="&#xa2;" horiz-adv-x="480" 
d="M235 -103v91q-61 2 -98 41t-49.5 95.5t-12.5 139.5q0 128 38.5 195.5t121.5 75.5v78h24v-78q42 -2 72.5 -22t45 -48t20.5 -51.5t6 -40.5h-42q0 21 -7.5 46.5t-32.5 52.5t-62 29v-479q31 3 53 21t32.5 43t14.5 46t4 39h42q0 -22 -6 -47.5t-20.5 -56.5t-45.5 -53t-74 -26
v-91h-24zM235 22v479q-118 -15 -118 -239q0 -118 27 -175.5t91 -64.5z" />
    <glyph glyph-name="sterling" unicode="&#xa3;" horiz-adv-x="480" 
d="M28 334v34h87q-2 3 -12.5 20l-14 23l-12 21.5t-12 25t-8 23.5t-6.5 27t-2 26q0 75 54.5 124.5t136.5 49.5q100 0 150 -59t50 -148h-42q0 79 -38.5 126t-121.5 47q-60 0 -103.5 -37.5t-43.5 -98.5q0 -14 3.5 -30.5t7.5 -28.5t13 -30.5t13.5 -27l15.5 -28.5t14 -25h140v-34
h-126q19 -47 19 -90q0 -114 -122 -214l2 -2q47 31 83 31q32 0 76 -18q47 -19 76 -19q55 0 132 59l19 -28q-76 -65 -149 -65q-35 0 -82 19q-44 18 -87 18q-46 0 -91 -34l-23 34q58 55 91 106t33 113q0 48 -19 90h-101z" />
    <glyph glyph-name="currency" unicode="&#xa4;" horiz-adv-x="480" 
d="M240 169q72 0 123.5 52t51.5 127t-51.5 127t-123.5 52t-123.5 -52t-51.5 -127t51.5 -127t123.5 -52zM29 160l49 50q-51 56 -51 138q0 80 51 139l-49 49l23 23l50 -49q57 51 138 51q82 0 138 -51l50 49l23 -23l-49 -49q51 -59 51 -139q0 -82 -51 -138l49 -50l-23 -23
l-50 49q-57 -51 -138 -51t-138 51l-50 -49z" />
    <glyph glyph-name="yen" unicode="&#xa5;" horiz-adv-x="480" 
d="M219 0v171h-135v34h135v82h-135v34h118l-178 375h46l170 -367l174 367h42l-178 -375h126v-34h-143v-82h143v-34h-143v-171h-42z" />
    <glyph glyph-name="brokenbar" unicode="&#xa6;" horiz-adv-x="222" 
d="M92 460v266h38v-266h-38zM92 -12v266h38v-266h-38z" />
    <glyph glyph-name="section" unicode="&#xa7;" horiz-adv-x="481" 
d="M78 20h42v-15q0 -55 31.5 -88.5t89.5 -33.5q57 0 89.5 28t32.5 75q0 29 -18.5 56t-35.5 40.5t-54 39.5l-142 95q-75 49 -75 122q0 94 106 145q-19 17 -29.5 28.5t-19.5 32t-9 44.5q0 64 46.5 100.5t115.5 36.5q76 0 115.5 -43t39.5 -97v-6h-42v6q0 43 -29 74.5t-84 31.5
q-59 0 -89.5 -30t-30.5 -73q0 -32 20 -54.5t67 -54.5l153 -103q75 -50 75 -131q0 -85 -103 -139q65 -53 65 -120q0 -56 -41.5 -97t-120.5 -41q-81 0 -123 44t-42 105v22zM177 221l136 -94q88 47 88 117q0 66 -64 109l-166 111q-91 -49 -91 -124q0 -19 7 -35.5t25.5 -33.5
t28.5 -24.5t36 -25.5z" />
    <glyph glyph-name="dieresis" unicode="&#xa8;" horiz-adv-x="148" 
d="M-14 615v102h42v-102h-42zM120 615v102h42v-102h-42z" />
    <glyph glyph-name="copyright" unicode="&#xa9;" horiz-adv-x="800" 
d="M69 357q0 -137 97 -234t234 -97t234 97t97 234t-97 234t-234 97t-234 -97t-97 -234zM31 357q0 153 108 261t261 108t261 -108t108 -261t-108 -261t-261 -108t-261 108t-108 261zM602 437h-42q-11 58 -52.5 89.5t-107.5 31.5q-81 0 -127 -61t-46 -139q0 -86 47.5 -144.5
t125.5 -58.5q128 0 160 127h42q-11 -73 -65 -117t-137 -44q-95 0 -155 62.5t-60 174.5q0 107 62 170.5t153 63.5q85 0 137.5 -39t64.5 -116z" />
    <glyph glyph-name="ordfeminine" unicode="&#xaa;" horiz-adv-x="276" 
d="M193 497v70h-2q-8 -6 -41 -17l-51 -16q-47 -14 -47 -67q0 -26 14.5 -43t41.5 -17q40 0 62.5 26t22.5 64zM62 611h-34q0 40 22.5 68.5t79.5 28.5q56 0 76.5 -22.5t20.5 -63.5v-198q0 -25 15 -25q9 0 16 3v-19q-9 -6 -24 -6q-41 0 -41 35v15h-2q-28 -50 -92 -50
q-40 0 -60.5 24.5t-20.5 62.5q0 71 70 92l63 19q23 7 32.5 15t9.5 28q0 34 -16 47t-48 13q-67 0 -67 -67z" />
    <glyph glyph-name="guillemotleft" unicode="&#xab;" horiz-adv-x="333" 
d="M166 116l-114 135v38l114 139v-50l-84 -108l84 -104v-50zM281 116l-114 135v38l114 139v-50l-84 -108l84 -104v-50z" />
    <glyph glyph-name="logicalnot" unicode="&#xac;" horiz-adv-x="600" 
d="M519 108v226h-472v34h506v-260h-34z" />
    <glyph glyph-name="uni00AD" unicode="&#xad;" horiz-adv-x="315" 
d="M63 255v34h189v-34h-189z" />
    <glyph glyph-name="registered" unicode="&#xae;" horiz-adv-x="800" 
d="M31 357q0 153 108 261t261 108t261 -108t108 -261t-108 -261t-261 -108t-261 108t-108 261zM69 357q0 -137 97 -234t234 -97t234 97t97 234t-97 234t-234 97t-234 -97t-97 -234zM304 543v-171h111q118 0 118 84q0 87 -108 87h-121zM262 139v438h168q145 0 145 -122
q0 -97 -113 -118l130 -198h-45l-130 199h-113v-199h-42z" />
    <glyph glyph-name="macron" unicode="&#xaf;" horiz-adv-x="148" 
d="M-34 651v30h216v-30h-216z" />
    <glyph glyph-name="degree" unicode="&#xb0;" horiz-adv-x="400" 
d="M91 565q0 -45 32 -77t77 -32t77 32t32 77t-32 77t-77 32t-77 -32t-32 -77zM57 565q0 60 41.5 101.5t101.5 41.5t101.5 -41.5t41.5 -101.5t-41.5 -101.5t-101.5 -41.5t-101.5 41.5t-41.5 101.5z" />
    <glyph glyph-name="plusminus" unicode="&#xb1;" horiz-adv-x="600" 
d="M47 0v34h506v-34h-506zM283 314v192h34v-192h236v-34h-236v-192h-34v192h-236v34h236z" />
    <glyph glyph-name="twosuperior" unicode="&#xb2;" horiz-adv-x="313" 
d="M283 280h-253v15q0 82 75 137l68 49q39 29 57.5 53.5t18.5 56.5q0 41 -23.5 64t-63.5 23q-52 0 -75 -28.5t-23 -71.5h-34q0 58 33.5 94t97.5 36q48 0 85 -25.5t37 -83.5q0 -48 -20 -76t-67 -63l-75 -55q-57 -42 -57 -95h219v-30z" />
    <glyph glyph-name="threesuperior" unicode="&#xb3;" horiz-adv-x="313" 
d="M131 487v30h17q43 0 67 22.5t24 60.5q0 36 -22 57t-61 21q-44 0 -66 -25.5t-22 -59.5h-34q0 52 33 83.5t94 31.5q50 0 81 -28t31 -78q0 -37 -20 -64t-58 -33v-3q93 -12 93 -101q0 -58 -35 -93t-97 -35q-67 0 -99 33.5t-32 85.5h34q0 -35 24.5 -62t69.5 -27q41 0 71 25
t30 72q0 87 -106 87h-17z" />
    <glyph glyph-name="acute" unicode="&#xb4;" horiz-adv-x="148" 
d="M34 596l78 140h48l-93 -140h-33z" />
    <glyph glyph-name="mu" unicode="&#xb5;" horiz-adv-x="407" 
d="M356 523v-523h-38v79h-2q-38 -91 -133 -91q-55 0 -92 48h-2v-212h-38v699h38v-376q0 -67 26.5 -96t77.5 -29q58 0 91.5 47t33.5 119v335h38z" />
    <glyph glyph-name="paragraph" unicode="&#xb6;" horiz-adv-x="600" 
d="M271 356v324q-71 0 -117 -43t-46 -119t46 -119t117 -43zM271 -139v461q-90 0 -147.5 51.5t-57.5 144.5q0 94 60.5 145t162.5 51h187v-853h-38v819h-129v-819h-38z" />
    <glyph glyph-name="periodcentered" unicode="&#xb7;" horiz-adv-x="240" 
d="M69 330q0 21 15 36t36 15t36 -15t15 -36t-15 -36t-36 -15t-36 15t-15 36z" />
    <glyph glyph-name="cedilla" unicode="&#xb8;" horiz-adv-x="148" 
d="M73 0h30l-42 -59l2 -2q15 5 38 5q28 0 48.5 -18.5t20.5 -47.5q0 -28 -25.5 -51t-73.5 -23q-51 0 -84 18l9 22q34 -16 77 -16q63 0 63 49q0 43 -54 43q-29 0 -53 -14l-10 12z" />
    <glyph glyph-name="onesuperior" unicode="&#xb9;" horiz-adv-x="313" 
d="M156 280v380q-16 -18 -48 -33t-62 -17v30q35 2 69.5 23t44.5 45h30v-428h-34z" />
    <glyph glyph-name="ordmasculine" unicode="&#xba;" horiz-adv-x="313" 
d="M74 543q0 -136 82 -136q83 0 83 136q0 135 -83 135q-82 0 -82 -135zM157 377q-66 0 -91.5 43t-25.5 123q0 79 25.5 122t91.5 43q65 0 90.5 -43.5t25.5 -121.5q0 -79 -25.5 -122.5t-90.5 -43.5z" />
    <glyph glyph-name="guillemotright" unicode="&#xbb;" horiz-adv-x="333" 
d="M167 116v50l84 108l-84 104v50l114 -135v-38zM52 116v50l84 108l-84 104v50l114 -135v-38z" />
    <glyph glyph-name="onequarter" unicode="&#xbc;" horiz-adv-x="721" 
d="M139 280v380q-16 -18 -48 -33t-62 -17v30q35 2 69.5 23t44.5 45h30v-428h-34zM96 -32l459 760h34l-459 -760h-34zM599 0v108h-193v35l185 285h42v-290h59v-30h-59v-108h-34zM599 138v242h-2l-157 -242h159z" />
    <glyph glyph-name="onehalf" unicode="&#xbd;" horiz-adv-x="721" 
d="M692 0h-253v15q0 82 75 137l68 49q39 29 57.5 53.5t18.5 56.5q0 41 -23.5 64t-63.5 23q-52 0 -75 -28.5t-23 -71.5h-34q0 58 33.5 94t97.5 36q48 0 85 -25.5t37 -83.5q0 -48 -20 -76t-67 -63l-75 -55q-57 -42 -57 -95h219v-30zM139 280v380q-16 -18 -48 -33t-62 -17v30
q35 2 69.5 23t44.5 45h30v-428h-34zM85 -32l459 760h34l-459 -760h-34z" />
    <glyph glyph-name="threequarters" unicode="&#xbe;" horiz-adv-x="721" 
d="M131 487v30h17q43 0 67 22.5t24 60.5q0 36 -22 57t-61 21q-44 0 -66 -25.5t-22 -59.5h-34q0 52 33 83.5t94 31.5q50 0 81 -28t31 -78q0 -37 -20 -64t-58 -33v-3q93 -12 93 -101q0 -58 -35 -93t-97 -35q-67 0 -99 33.5t-32 85.5h34q0 -35 24.5 -62t69.5 -27q41 0 71 25
t30 72q0 87 -106 87h-17zM131 -32l459 760h34l-459 -760h-34zM599 0v108h-193v35l185 285h42v-290h59v-30h-59v-108h-34zM599 138v242h-2l-157 -242h159z" />
    <glyph glyph-name="questiondown" unicode="&#xbf;" 
d="M201 542h42v-96h-42v96zM243 359v-50q0 -47 -17 -83.5t-41.5 -60.5l-49 -48t-41.5 -58t-17 -77q0 -62 35 -97t96 -35q51 0 84 26t45 62.5t12 81.5v13h42v-16q0 -35 -9.5 -68.5t-29.5 -64.5t-57 -49.5t-86 -18.5q-90 0 -132 49.5t-42 114.5q0 50 17 87.5t41.5 61.5l49 47
t41.5 56t17 75v52h42z" />
    <glyph glyph-name="Agrave" unicode="&#xc0;" horiz-adv-x="481" 
d="M443 0l-68 222h-269l-68 -222h-42l222 714h53l214 -714h-42zM367 256l-123 416h-2l-126 -416h251zM188 910l78 -140h-33l-93 140h48z" />
    <glyph glyph-name="Aacute" unicode="&#xc1;" horiz-adv-x="481" 
d="M443 0l-68 222h-269l-68 -222h-42l222 714h53l214 -714h-42zM367 256l-123 416h-2l-126 -416h251zM221 770l78 140h48l-93 -140h-33z" />
    <glyph glyph-name="Acircumflex" unicode="&#xc2;" horiz-adv-x="481" 
d="M443 0l-68 222h-269l-68 -222h-42l222 714h53l214 -714h-42zM367 256l-123 416h-2l-126 -416h251zM128 770l94 140h42l94 -140h-42l-73 110l-73 -110h-42z" />
    <glyph glyph-name="Atilde" unicode="&#xc3;" horiz-adv-x="481" 
d="M443 0l-68 222h-269l-68 -222h-42l222 714h53l214 -714h-42zM367 256l-123 416h-2l-126 -416h251zM334 885h30q0 -30 -16.5 -58t-51.5 -28q-25 -1 -59 25t-49 26q-38 0 -38 -55h-30q0 29 16.5 57t51.5 28q27 1 59 -25q34 -26 49 -26q21 0 29.5 18t8.5 38z" />
    <glyph glyph-name="Adieresis" unicode="&#xc4;" horiz-adv-x="481" 
d="M443 0l-68 222h-269l-68 -222h-42l222 714h53l214 -714h-42zM367 256l-123 416h-2l-126 -416h251zM155 789v102h42v-102h-42zM289 789v102h42v-102h-42z" />
    <glyph glyph-name="Aring" unicode="&#xc5;" horiz-adv-x="481" 
d="M443 0l-68 222h-269l-68 -222h-42l222 714h53l214 -714h-42zM367 256l-123 416h-2l-126 -416h251zM186 832q0 -25 17 -42.5t42 -17.5t42 17.5t17 42.5t-17 42.5t-42 17.5t-42 -17.5t-17 -42.5zM156 832q0 37 25.5 62.5t63.5 25.5t63.5 -25.5t25.5 -62.5t-25.5 -62.5
t-63.5 -25.5t-63.5 25.5t-25.5 62.5z" />
    <glyph glyph-name="AE" unicode="&#xc6;" horiz-adv-x="704" 
d="M336 0v222h-202l-93 -222h-45l307 714h374v-38h-299v-285h279v-38h-279v-315h309v-38h-351zM148 256h188v420h-7z" />
    <glyph glyph-name="Ccedilla" unicode="&#xc7;" horiz-adv-x="500" 
d="M467 509h-42q0 77 -40.5 130t-115.5 53q-101 0 -145 -86.5t-44 -247.5q0 -76 8.5 -134t28.5 -105t57 -72t89 -25q48 0 84 25.5t53.5 63.5t25.5 70.5t8 58.5h42q0 -60 -26 -125t-85 -100q-39 -26 -100 -27l-33 -47l2 -2q15 5 38 5q28 0 48.5 -18.5t20.5 -47.5
q0 -28 -25.5 -51t-73.5 -23q-51 0 -84 18l9 22q34 -16 77 -16q63 0 63 49q0 43 -54 43q-29 0 -53 -14l-10 12l46 71q-46 5 -80 24q-118 72 -118 343q0 370 229 370q48 0 85 -16t58 -40t34.5 -55t18 -56.5t4.5 -49.5z" />
    <glyph glyph-name="Egrave" unicode="&#xc8;" 
d="M61 0v714h341v-38h-299v-285h279v-38h-279v-315h308v-38h-350zM185 910l78 -140h-33l-93 140h48z" />
    <glyph glyph-name="Eacute" unicode="&#xc9;" 
d="M61 0v714h341v-38h-299v-285h279v-38h-279v-315h308v-38h-350zM208 770l78 140h48l-93 -140h-33z" />
    <glyph glyph-name="Ecircumflex" unicode="&#xca;" 
d="M61 0v714h341v-38h-299v-285h279v-38h-279v-315h308v-38h-350zM117 770l94 140h42l94 -140h-42l-73 110l-73 -110h-42z" />
    <glyph glyph-name="Edieresis" unicode="&#xcb;" 
d="M61 0v714h341v-38h-299v-285h279v-38h-279v-315h308v-38h-350zM145 789v102h42v-102h-42zM279 789v102h42v-102h-42z" />
    <glyph glyph-name="Igrave" unicode="&#xcc;" horiz-adv-x="164" 
d="M61 0v714h42v-714h-42zM25 910l78 -140h-33l-93 140h48z" />
    <glyph glyph-name="Iacute" unicode="&#xcd;" horiz-adv-x="164" 
d="M61 0v714h42v-714h-42zM61 770l78 140h48l-93 -140h-33z" />
    <glyph glyph-name="Icircumflex" unicode="&#xce;" horiz-adv-x="164" 
d="M61 0v714h42v-714h-42zM-34 770l94 140h42l94 -140h-42l-73 110l-73 -110h-42z" />
    <glyph glyph-name="Idieresis" unicode="&#xcf;" horiz-adv-x="164" 
d="M61 0v714h42v-714h-42zM-6 789v102h42v-102h-42zM128 789v102h42v-102h-42z" />
    <glyph glyph-name="Eth" unicode="&#xd0;" horiz-adv-x="519" 
d="M283 355h-180v-321h121q113 0 164 78.5t51 244.5q0 170 -47.5 246.5t-167.5 76.5h-121v-289h180v-36zM61 0v355h-60v36h60v323h163q61 0 104.5 -15t80 -53t54.5 -110t18 -179q0 -85 -14 -149.5t-37 -103t-57 -62.5t-69.5 -33t-79.5 -9h-163z" />
    <glyph glyph-name="Ntilde" unicode="&#xd1;" horiz-adv-x="519" 
d="M54 714h56l311 -648h2v648h42v-714h-55l-312 648h-2v-648h-42v714zM357 885h30q0 -30 -16.5 -58t-51.5 -28q-25 -1 -59 25t-49 26q-38 0 -38 -55h-30q0 29 16.5 57t51.5 28q27 1 59 -25q34 -26 49 -26q21 0 29.5 18t8.5 38z" />
    <glyph glyph-name="Ograve" unicode="&#xd2;" horiz-adv-x="537" 
d="M269 692q-189 0 -189 -335q0 -105 15.5 -175.5t58.5 -115t115 -44.5q98 0 143 81.5t45 253.5q0 158 -43 246.5t-145 88.5zM269 726q112 0 171 -85t59 -284q0 -111 -21 -188.5t-57 -114.5t-72.5 -51.5t-79.5 -14.5q-231 0 -231 369t231 369zM223 910l78 -140h-33l-93 140
h48z" />
    <glyph glyph-name="Oacute" unicode="&#xd3;" horiz-adv-x="537" 
d="M269 692q-189 0 -189 -335q0 -105 15.5 -175.5t58.5 -115t115 -44.5q98 0 143 81.5t45 253.5q0 158 -43 246.5t-145 88.5zM269 726q112 0 171 -85t59 -284q0 -111 -21 -188.5t-57 -114.5t-72.5 -51.5t-79.5 -14.5q-231 0 -231 369t231 369zM249 770l78 140h48l-93 -140
h-33z" />
    <glyph glyph-name="Ocircumflex" unicode="&#xd4;" horiz-adv-x="537" 
d="M269 692q-189 0 -189 -335q0 -105 15.5 -175.5t58.5 -115t115 -44.5q98 0 143 81.5t45 253.5q0 158 -43 246.5t-145 88.5zM269 726q112 0 171 -85t59 -284q0 -111 -21 -188.5t-57 -114.5t-72.5 -51.5t-79.5 -14.5q-231 0 -231 369t231 369zM154 770l94 140h42l94 -140
h-42l-73 110l-73 -110h-42z" />
    <glyph glyph-name="Otilde" unicode="&#xd5;" horiz-adv-x="537" 
d="M269 692q-189 0 -189 -335q0 -105 15.5 -175.5t58.5 -115t115 -44.5q98 0 143 81.5t45 253.5q0 158 -43 246.5t-145 88.5zM269 726q112 0 171 -85t59 -284q0 -111 -21 -188.5t-57 -114.5t-72.5 -51.5t-79.5 -14.5q-231 0 -231 369t231 369zM363 885h30q0 -30 -16.5 -58
t-51.5 -28q-25 -1 -59 25t-49 26q-38 0 -38 -55h-30q0 29 16.5 57t51.5 28q27 1 59 -25q34 -26 49 -26q21 0 29.5 18t8.5 38z" />
    <glyph glyph-name="Odieresis" unicode="&#xd6;" horiz-adv-x="537" 
d="M269 692q-189 0 -189 -335q0 -105 15.5 -175.5t58.5 -115t115 -44.5q98 0 143 81.5t45 253.5q0 158 -43 246.5t-145 88.5zM269 726q112 0 171 -85t59 -284q0 -111 -21 -188.5t-57 -114.5t-72.5 -51.5t-79.5 -14.5q-231 0 -231 369t231 369zM181 789v102h42v-102h-42z
M315 789v102h42v-102h-42z" />
    <glyph glyph-name="multiply" unicode="&#xd7;" horiz-adv-x="600" 
d="M300 232l-197 -197l-21 22l197 196l-197 197l21 21l197 -197l197 197l21 -21l-197 -197l197 -196l-21 -22z" />
    <glyph glyph-name="Oslash" unicode="&#xd8;" horiz-adv-x="537" 
d="M88 -41l35 86q-85 85 -85 312q0 369 231 369q74 0 117 -31l28 68l33 -12l-32 -79q84 -84 84 -315q0 -111 -21 -188.5t-57 -114.5t-72.5 -51.5t-79.5 -14.5q-71 0 -118 33l-30 -74zM398 629l-233 -573q40 -34 104 -34q98 0 143 81.5t45 253.5q0 194 -59 272zM139 83
l232 575q-40 34 -102 34q-189 0 -189 -335q0 -195 59 -274z" />
    <glyph glyph-name="Ugrave" unicode="&#xd9;" horiz-adv-x="500" 
d="M94 714v-525q0 -167 156 -167q76 0 116 45t40 122v525h42v-517q0 -111 -56.5 -160t-141.5 -49q-198 0 -198 209v517h42zM206 910l78 -140h-33l-93 140h48z" />
    <glyph glyph-name="Uacute" unicode="&#xda;" horiz-adv-x="500" 
d="M94 714v-525q0 -167 156 -167q76 0 116 45t40 122v525h42v-517q0 -111 -56.5 -160t-141.5 -49q-198 0 -198 209v517h42zM231 770l78 140h48l-93 -140h-33z" />
    <glyph glyph-name="Ucircumflex" unicode="&#xdb;" horiz-adv-x="500" 
d="M94 714v-525q0 -167 156 -167q76 0 116 45t40 122v525h42v-517q0 -111 -56.5 -160t-141.5 -49q-198 0 -198 209v517h42zM135 770l94 140h42l94 -140h-42l-73 110l-73 -110h-42z" />
    <glyph glyph-name="Udieresis" unicode="&#xdc;" horiz-adv-x="500" 
d="M94 714v-525q0 -167 156 -167q76 0 116 45t40 122v525h42v-517q0 -111 -56.5 -160t-141.5 -49q-198 0 -198 209v517h42zM164 789v102h42v-102h-42zM298 789v102h42v-102h-42z" />
    <glyph glyph-name="Yacute" unicode="&#xdd;" horiz-adv-x="444" 
d="M201 0v294l-195 420h46l170 -376l174 376h42l-195 -420v-294h-42zM204 770l78 140h48l-93 -140h-33z" />
    <glyph glyph-name="Thorn" unicode="&#xde;" horiz-adv-x="463" 
d="M103 212h138q69 0 113 40.5t44 123.5q0 78 -39.5 121t-111.5 43h-144v-328zM61 0v714h42v-140h143q59 -1 100 -20.5t60 -52t26.5 -62t7.5 -63.5q0 -92 -53.5 -145t-149.5 -53h-134v-178h-42z" />
    <glyph glyph-name="germandbls" unicode="&#xdf;" 
d="M51 0v540q0 84 42.5 129t119.5 45q71 0 110.5 -43.5t39.5 -115.5q0 -115 -101 -143v-2q63 -9 99.5 -57t36.5 -134q0 -221 -209 -225h-22v34h22q86 0 126.5 45t40.5 145q0 88 -38.5 130t-120.5 42h-25v34h26q54 0 88.5 31t34.5 102q0 54 -28.5 88.5t-83.5 34.5
q-120 0 -120 -141v-539h-38z" />
    <glyph glyph-name="agrave" unicode="&#xe0;" horiz-adv-x="389" 
d="M294 197v108h-2q-9 -15 -21.5 -21t-44.5 -14l-77 -21q-45 -13 -64 -40t-19 -75q0 -112 96 -112q65 0 98.5 47t33.5 128zM332 397v-334q0 -35 23 -35q14 0 24 5v-30q-12 -9 -40 -9q-15 0 -30 14.5t-15 42.5v33h-2q-12 -42 -48.5 -69t-88.5 -27q-66 0 -98.5 40.5
t-32.5 105.5q0 60 25 94.5t81 49.5l113 31q32 9 41.5 25t9.5 52q0 66 -26.5 90.5t-74.5 24.5q-114 0 -114 -127h-38q0 30 6.5 56t21.5 51t46 39.5t74 14.5q80 0 111.5 -37t31.5 -101zM145 736l78 -140h-33l-93 140h48z" />
    <glyph glyph-name="aacute" unicode="&#xe1;" horiz-adv-x="389" 
d="M294 197v108h-2q-9 -15 -21.5 -21t-44.5 -14l-77 -21q-45 -13 -64 -40t-19 -75q0 -112 96 -112q65 0 98.5 47t33.5 128zM332 397v-334q0 -35 23 -35q14 0 24 5v-30q-12 -9 -40 -9q-15 0 -30 14.5t-15 42.5v33h-2q-12 -42 -48.5 -69t-88.5 -27q-66 0 -98.5 40.5
t-32.5 105.5q0 60 25 94.5t81 49.5l113 31q32 9 41.5 25t9.5 52q0 66 -26.5 90.5t-74.5 24.5q-114 0 -114 -127h-38q0 30 6.5 56t21.5 51t46 39.5t74 14.5q80 0 111.5 -37t31.5 -101zM172 596l78 140h48l-93 -140h-33z" />
    <glyph glyph-name="acircumflex" unicode="&#xe2;" horiz-adv-x="389" 
d="M294 197v108h-2q-9 -15 -21.5 -21t-44.5 -14l-77 -21q-45 -13 -64 -40t-19 -75q0 -112 96 -112q65 0 98.5 47t33.5 128zM332 397v-334q0 -35 23 -35q14 0 24 5v-30q-12 -9 -40 -9q-15 0 -30 14.5t-15 42.5v33h-2q-12 -42 -48.5 -69t-88.5 -27q-66 0 -98.5 40.5
t-32.5 105.5q0 60 25 94.5t81 49.5l113 31q32 9 41.5 25t9.5 52q0 66 -26.5 90.5t-74.5 24.5q-114 0 -114 -127h-38q0 30 6.5 56t21.5 51t46 39.5t74 14.5q80 0 111.5 -37t31.5 -101zM77 596l94 140h42l94 -140h-42l-73 110l-73 -110h-42z" />
    <glyph glyph-name="atilde" unicode="&#xe3;" horiz-adv-x="389" 
d="M294 197v108h-2q-9 -15 -21.5 -21t-44.5 -14l-77 -21q-45 -13 -64 -40t-19 -75q0 -112 96 -112q65 0 98.5 47t33.5 128zM332 397v-334q0 -35 23 -35q14 0 24 5v-30q-12 -9 -40 -9q-15 0 -30 14.5t-15 42.5v33h-2q-12 -42 -48.5 -69t-88.5 -27q-66 0 -98.5 40.5
t-32.5 105.5q0 60 25 94.5t81 49.5l113 31q32 9 41.5 25t9.5 52q0 66 -26.5 90.5t-74.5 24.5q-114 0 -114 -127h-38q0 30 6.5 56t21.5 51t46 39.5t74 14.5q80 0 111.5 -37t31.5 -101zM285 711h30q0 -30 -16.5 -58t-51.5 -28q-25 -1 -59 25t-49 26q-38 0 -38 -55h-30
q0 29 16.5 57t51.5 28q27 1 59 -25q34 -26 49 -26q21 0 29.5 18t8.5 38z" />
    <glyph glyph-name="adieresis" unicode="&#xe4;" horiz-adv-x="389" 
d="M294 197v108h-2q-9 -15 -21.5 -21t-44.5 -14l-77 -21q-45 -13 -64 -40t-19 -75q0 -112 96 -112q65 0 98.5 47t33.5 128zM332 397v-334q0 -35 23 -35q14 0 24 5v-30q-12 -9 -40 -9q-15 0 -30 14.5t-15 42.5v33h-2q-12 -42 -48.5 -69t-88.5 -27q-66 0 -98.5 40.5
t-32.5 105.5q0 60 25 94.5t81 49.5l113 31q32 9 41.5 25t9.5 52q0 66 -26.5 90.5t-74.5 24.5q-114 0 -114 -127h-38q0 30 6.5 56t21.5 51t46 39.5t74 14.5q80 0 111.5 -37t31.5 -101zM106 615v102h42v-102h-42zM240 615v102h42v-102h-42z" />
    <glyph glyph-name="aring" unicode="&#xe5;" horiz-adv-x="389" 
d="M294 197v108h-2q-9 -15 -21.5 -21t-44.5 -14l-77 -21q-45 -13 -64 -40t-19 -75q0 -112 96 -112q65 0 98.5 47t33.5 128zM332 397v-334q0 -35 23 -35q14 0 24 5v-30q-12 -9 -40 -9q-15 0 -30 14.5t-15 42.5v33h-2q-12 -42 -48.5 -69t-88.5 -27q-66 0 -98.5 40.5
t-32.5 105.5q0 60 25 94.5t81 49.5l113 31q32 9 41.5 25t9.5 52q0 66 -26.5 90.5t-74.5 24.5q-114 0 -114 -127h-38q0 30 6.5 56t21.5 51t46 39.5t74 14.5q80 0 111.5 -37t31.5 -101zM135 682q0 -25 17 -42.5t42 -17.5t42 17.5t17 42.5t-17 42.5t-42 17.5t-42 -17.5
t-17 -42.5zM105 682q0 37 25.5 62.5t63.5 25.5t63.5 -25.5t25.5 -62.5t-25.5 -62.5t-63.5 -25.5t-63.5 25.5t-25.5 62.5z" />
    <glyph glyph-name="ae" unicode="&#xe6;" horiz-adv-x="612" 
d="M316 298h230q0 93 -27.5 148t-86.5 55q-60 0 -88 -55t-28 -148zM66 131q0 -51 23.5 -80t72.5 -29q54 0 85 43.5t31 116.5v107h-2q-17 -12 -61 -23l-66 -17q-83 -22 -83 -118zM79 374h-38q0 29 6.5 55t21.5 51t45 40t73 15q56 0 85.5 -27t37.5 -62h2q33 89 113 89
q89 0 126 -68.5t37 -202.5h-272v-29q0 -213 113 -213q34 0 58 17t35.5 43.5t16 48.5t4.5 40h38q0 -70 -39 -126.5t-114 -56.5q-54 0 -88.5 37t-43.5 85h-2q-30 -122 -139 -122q-66 0 -98.5 40.5t-32.5 105.5q0 113 103 142l93 24q36 8 47 21.5t11 51.5v26q0 58 -24.5 80
t-67.5 22q-35 0 -58 -14t-33 -36.5t-13 -40t-3 -36.5z" />
    <glyph glyph-name="ccedilla" unicode="&#xe7;" horiz-adv-x="389" 
d="M327 171h42q0 -39 -18.5 -87.5t-61.5 -74.5q-28 -19 -74 -21l-33 -47l2 -2q15 5 38 5q28 0 48.5 -18.5t20.5 -47.5q0 -28 -25.5 -51t-73.5 -23q-51 0 -84 18l9 22q34 -16 77 -16q63 0 63 49q0 43 -54 43q-29 0 -53 -14l-10 12l46 71q-39 5 -63 20q-85 56 -85 255
q0 271 176 271q44 0 76.5 -19.5t47.5 -48.5t21.5 -52.5t6.5 -41.5h-42q0 15 -5 34t-16 41.5t-34.5 37.5t-55.5 15q-70 0 -101.5 -60.5t-31.5 -178.5q0 -125 30.5 -182.5t102.5 -57.5q34 0 58 17t35.5 43.5t16 48.5t4.5 40z" />
    <glyph glyph-name="egrave" unicode="&#xe8;" horiz-adv-x="407" 
d="M376 264h-296q0 -26 0.5 -40.5t2.5 -43.5t6.5 -47t13.5 -41.5t21.5 -37t33 -23t45.5 -9.5q38 0 65.5 17t40 43.5t17.5 48t5 40.5h38q0 -70 -40.5 -126.5t-121.5 -56.5q-96 0 -132.5 72t-36.5 216q0 123 44 191t131 68q89 0 126 -68.5t37 -202.5zM80 298h254
q0 41 -4.5 72.5t-16.5 63.5t-37.5 49.5t-64.5 17.5q-41 0 -69 -21t-40.5 -56t-17 -64.5t-4.5 -61.5zM159 736l78 -140h-33l-93 140h48z" />
    <glyph glyph-name="eacute" unicode="&#xe9;" horiz-adv-x="407" 
d="M376 264h-296q0 -26 0.5 -40.5t2.5 -43.5t6.5 -47t13.5 -41.5t21.5 -37t33 -23t45.5 -9.5q38 0 65.5 17t40 43.5t17.5 48t5 40.5h38q0 -70 -40.5 -126.5t-121.5 -56.5q-96 0 -132.5 72t-36.5 216q0 123 44 191t131 68q89 0 126 -68.5t37 -202.5zM80 298h254
q0 41 -4.5 72.5t-16.5 63.5t-37.5 49.5t-64.5 17.5q-41 0 -69 -21t-40.5 -56t-17 -64.5t-4.5 -61.5zM194 596l78 140h48l-93 -140h-33z" />
    <glyph glyph-name="ecircumflex" unicode="&#xea;" horiz-adv-x="407" 
d="M376 264h-296q0 -26 0.5 -40.5t2.5 -43.5t6.5 -47t13.5 -41.5t21.5 -37t33 -23t45.5 -9.5q38 0 65.5 17t40 43.5t17.5 48t5 40.5h38q0 -70 -40.5 -126.5t-121.5 -56.5q-96 0 -132.5 72t-36.5 216q0 123 44 191t131 68q89 0 126 -68.5t37 -202.5zM80 298h254
q0 41 -4.5 72.5t-16.5 63.5t-37.5 49.5t-64.5 17.5q-41 0 -69 -21t-40.5 -56t-17 -64.5t-4.5 -61.5zM98 596l94 140h42l94 -140h-42l-73 110l-73 -110h-42z" />
    <glyph glyph-name="edieresis" unicode="&#xeb;" horiz-adv-x="407" 
d="M376 264h-296q0 -26 0.5 -40.5t2.5 -43.5t6.5 -47t13.5 -41.5t21.5 -37t33 -23t45.5 -9.5q38 0 65.5 17t40 43.5t17.5 48t5 40.5h38q0 -70 -40.5 -126.5t-121.5 -56.5q-96 0 -132.5 72t-36.5 216q0 123 44 191t131 68q89 0 126 -68.5t37 -202.5zM80 298h254
q0 41 -4.5 72.5t-16.5 63.5t-37.5 49.5t-64.5 17.5q-41 0 -69 -21t-40.5 -56t-17 -64.5t-4.5 -61.5zM124 615v102h42v-102h-42zM258 615v102h42v-102h-42z" />
    <glyph glyph-name="igrave" unicode="&#xec;" horiz-adv-x="148" 
d="M55 0v523h38v-523h-38zM15 736l78 -140h-33l-93 140h48z" />
    <glyph glyph-name="iacute" unicode="&#xed;" horiz-adv-x="148" 
d="M55 0v523h38v-523h-38zM54 596l78 140h48l-93 -140h-33z" />
    <glyph glyph-name="icircumflex" unicode="&#xee;" horiz-adv-x="148" 
d="M55 0v523h38v-523h-38zM-42 596l94 140h42l94 -140h-42l-73 110l-73 -110h-42z" />
    <glyph glyph-name="idieresis" unicode="&#xef;" horiz-adv-x="148" 
d="M55 0v523h38v-523h-38zM-14 615v102h42v-102h-42zM120 615v102h42v-102h-42z" />
    <glyph glyph-name="eth" unicode="&#xf0;" 
d="M111 642l79 47q-31 31 -77 55l36 22q37 -18 77 -56l80 48l26 -26l-81 -48q137 -149 137 -423q0 -62 -8 -108.5t-26.5 -85.5t-53.5 -59t-86 -20q-42 0 -73 14t-50.5 37.5t-31.5 59t-16.5 74.5t-4.5 88q0 62 8 108.5t26.5 85.5t54 59.5t87.5 20.5q56 0 96 -33l2 2
q-10 38 -39 85t-57 74l-79 -47zM80 262q0 -119 30.5 -179.5t102.5 -60.5t102.5 60.5t30.5 179.5q0 118 -30.5 178.5t-102.5 60.5t-102.5 -60.5t-30.5 -178.5z" />
    <glyph glyph-name="ntilde" unicode="&#xf1;" horiz-adv-x="407" 
d="M51 0v523h38v-79h2q16 39 49.5 65t83.5 26q60 0 96 -35t36 -106v-394h-38v376q0 67 -26.5 96t-77.5 29q-58 0 -91.5 -47t-33.5 -119v-335h-38zM294 711h30q0 -30 -16.5 -58t-51.5 -28q-25 -1 -59 25t-49 26q-38 0 -38 -55h-30q0 29 16.5 57t51.5 28q27 1 59 -25
q34 -26 49 -26q21 0 29.5 18t8.5 38z" />
    <glyph glyph-name="ograve" unicode="&#xf2;" 
d="M346 261q0 119 -30.5 179.5t-102.5 60.5t-102.5 -60.5t-30.5 -179.5q0 -118 30.5 -178.5t102.5 -60.5t102.5 60.5t30.5 178.5zM388 262q0 -61 -8 -107.5t-27 -85.5t-55 -60t-88 -21q-50 0 -85 21t-53 60t-26 85.5t-8 107.5t8 107t27 85t55 60t88 21q50 0 85 -21t53 -60
t26 -85.5t8 -106.5zM167 736l78 -140h-33l-93 140h48z" />
    <glyph glyph-name="oacute" unicode="&#xf3;" 
d="M346 261q0 119 -30.5 179.5t-102.5 60.5t-102.5 -60.5t-30.5 -179.5q0 -118 30.5 -178.5t102.5 -60.5t102.5 60.5t30.5 178.5zM388 262q0 -61 -8 -107.5t-27 -85.5t-55 -60t-88 -21q-50 0 -85 21t-53 60t-26 85.5t-8 107.5t8 107t27 85t55 60t88 21q50 0 85 -21t53 -60
t26 -85.5t8 -106.5zM196 596l78 140h48l-93 -140h-33z" />
    <glyph glyph-name="ocircumflex" unicode="&#xf4;" 
d="M346 261q0 119 -30.5 179.5t-102.5 60.5t-102.5 -60.5t-30.5 -179.5q0 -118 30.5 -178.5t102.5 -60.5t102.5 60.5t30.5 178.5zM388 262q0 -61 -8 -107.5t-27 -85.5t-55 -60t-88 -21q-50 0 -85 21t-53 60t-26 85.5t-8 107.5t8 107t27 85t55 60t88 21q50 0 85 -21t53 -60
t26 -85.5t8 -106.5zM100 596l94 140h42l94 -140h-42l-73 110l-73 -110h-42z" />
    <glyph glyph-name="otilde" unicode="&#xf5;" 
d="M346 261q0 119 -30.5 179.5t-102.5 60.5t-102.5 -60.5t-30.5 -179.5q0 -118 30.5 -178.5t102.5 -60.5t102.5 60.5t30.5 178.5zM388 262q0 -61 -8 -107.5t-27 -85.5t-55 -60t-88 -21q-50 0 -85 21t-53 60t-26 85.5t-8 107.5t8 107t27 85t55 60t88 21q50 0 85 -21t53 -60
t26 -85.5t8 -106.5zM307 711h30q0 -30 -16.5 -58t-51.5 -28q-25 -1 -59 25t-49 26q-38 0 -38 -55h-30q0 29 16.5 57t51.5 28q27 1 59 -25q34 -26 49 -26q21 0 29.5 18t8.5 38z" />
    <glyph glyph-name="odieresis" unicode="&#xf6;" 
d="M346 261q0 119 -30.5 179.5t-102.5 60.5t-102.5 -60.5t-30.5 -179.5q0 -118 30.5 -178.5t102.5 -60.5t102.5 60.5t30.5 178.5zM388 262q0 -61 -8 -107.5t-27 -85.5t-55 -60t-88 -21q-50 0 -85 21t-53 60t-26 85.5t-8 107.5t8 107t27 85t55 60t88 21q50 0 85 -21t53 -60
t26 -85.5t8 -106.5zM127 615v102h42v-102h-42zM261 615v102h42v-102h-42z" />
    <glyph glyph-name="divide" unicode="&#xf7;" horiz-adv-x="600" 
d="M249 51q0 21 15 36t36 15t36 -15t15 -36t-15 -36t-36 -15t-36 15t-15 36zM249 455q0 21 15 36t36 15t36 -15t15 -36t-15 -36t-36 -15t-36 15t-15 36zM553 236h-506v34h506v-34z" />
    <glyph glyph-name="oslash" unicode="&#xf8;" 
d="M72 -43l29 72q-63 62 -63 233q0 61 8 107t27 85t55 60t88 21t84 -22l25 60l28 -10l-28 -69q63 -62 63 -232q0 -61 -8 -107.5t-27 -85.5t-55 -60t-88 -21q-50 0 -84 22l-26 -63zM118 71l167 406q-29 24 -72 24q-72 0 -102.5 -60.5t-30.5 -179.5q0 -134 38 -190zM308 452
l-167 -406q27 -24 72 -24q72 0 102.5 60.5t30.5 178.5q0 135 -38 191z" />
    <glyph glyph-name="ugrave" unicode="&#xf9;" horiz-adv-x="407" 
d="M356 523v-523h-38v79h-2q-38 -91 -133 -91q-60 0 -96 35t-36 106v394h38v-376q0 -67 26.5 -96t77.5 -29q58 0 91.5 47t33.5 119v335h38zM158 736l78 -140h-33l-93 140h48z" />
    <glyph glyph-name="uacute" unicode="&#xfa;" horiz-adv-x="407" 
d="M356 523v-523h-38v79h-2q-38 -91 -133 -91q-60 0 -96 35t-36 106v394h38v-376q0 -67 26.5 -96t77.5 -29q58 0 91.5 47t33.5 119v335h38zM185 596l78 140h48l-93 -140h-33z" />
    <glyph glyph-name="ucircumflex" unicode="&#xfb;" horiz-adv-x="407" 
d="M356 523v-523h-38v79h-2q-38 -91 -133 -91q-60 0 -96 35t-36 106v394h38v-376q0 -67 26.5 -96t77.5 -29q58 0 91.5 47t33.5 119v335h38zM89 596l94 140h42l94 -140h-42l-73 110l-73 -110h-42z" />
    <glyph glyph-name="udieresis" unicode="&#xfc;" horiz-adv-x="407" 
d="M356 523v-523h-38v79h-2q-38 -91 -133 -91q-60 0 -96 35t-36 106v394h38v-376q0 -67 26.5 -96t77.5 -29q58 0 91.5 47t33.5 119v335h38zM116 615v102h42v-102h-42zM250 615v102h42v-102h-42z" />
    <glyph glyph-name="yacute" unicode="&#xfd;" horiz-adv-x="352" 
d="M185 54l116 469h42l-162 -601q-15 -53 -42 -75.5t-74 -22.5q-13 0 -39 2v34q30 -2 33 -2q38 0 56 16t32 66l16 55l-154 528h42l132 -469h2zM165 596l78 140h48l-93 -140h-33z" />
    <glyph glyph-name="thorn" unicode="&#xfe;" 
d="M91 263q0 -119 30 -180t98 -61q49 0 78.5 34t39 84t9.5 123q0 121 -32 179.5t-88 58.5q-71 0 -103 -58t-32 -180zM53 -176v890h38v-283h2q35 104 134 104q161 0 161 -272q0 -275 -163 -275q-54 0 -88 29.5t-44 83.5h-2v-277h-38z" />
    <glyph glyph-name="ydieresis" unicode="&#xff;" horiz-adv-x="352" 
d="M185 54l116 469h42l-162 -601q-15 -53 -42 -75.5t-74 -22.5q-13 0 -39 2v34q30 -2 33 -2q38 0 56 16t32 66l16 55l-154 528h42l132 -469h2zM95 615v102h42v-102h-42zM229 615v102h42v-102h-42z" />
    <glyph glyph-name="Amacron" unicode="&#x100;" horiz-adv-x="481" 
d="M443 0l-68 222h-269l-68 -222h-42l222 714h53l214 -714h-42zM367 256l-123 416h-2l-126 -416h251zM136 825v30h216v-30h-216z" />
    <glyph glyph-name="amacron" unicode="&#x101;" horiz-adv-x="389" 
d="M294 197v108h-2q-9 -15 -21.5 -21t-44.5 -14l-77 -21q-45 -13 -64 -40t-19 -75q0 -112 96 -112q65 0 98.5 47t33.5 128zM332 397v-334q0 -35 23 -35q14 0 24 5v-30q-12 -9 -40 -9q-15 0 -30 14.5t-15 42.5v33h-2q-12 -42 -48.5 -69t-88.5 -27q-66 0 -98.5 40.5
t-32.5 105.5q0 60 25 94.5t81 49.5l113 31q32 9 41.5 25t9.5 52q0 66 -26.5 90.5t-74.5 24.5q-114 0 -114 -127h-38q0 30 6.5 56t21.5 51t46 39.5t74 14.5q80 0 111.5 -37t31.5 -101zM89 651v30h216v-30h-216z" />
    <glyph glyph-name="Abreve" unicode="&#x102;" horiz-adv-x="481" 
d="M443 0l-68 222h-269l-68 -222h-42l222 714h53l214 -714h-42zM367 256l-123 416h-2l-126 -416h251zM325 898h30q0 -43 -22 -74q-31 -42 -90 -42t-85.5 37t-26.5 79h30q0 -36 21 -60q24 -26 61 -26q39 0 60.5 24.5t21.5 61.5z" />
    <glyph glyph-name="abreve" unicode="&#x103;" horiz-adv-x="389" 
d="M294 197v108h-2q-9 -15 -21.5 -21t-44.5 -14l-77 -21q-45 -13 -64 -40t-19 -75q0 -112 96 -112q65 0 98.5 47t33.5 128zM332 397v-334q0 -35 23 -35q14 0 24 5v-30q-12 -9 -40 -9q-15 0 -30 14.5t-15 42.5v33h-2q-12 -42 -48.5 -69t-88.5 -27q-66 0 -98.5 40.5
t-32.5 105.5q0 60 25 94.5t81 49.5l113 31q32 9 41.5 25t9.5 52q0 66 -26.5 90.5t-74.5 24.5q-114 0 -114 -127h-38q0 30 6.5 56t21.5 51t46 39.5t74 14.5q80 0 111.5 -37t31.5 -101zM275 724h30q0 -43 -22 -74q-31 -42 -90 -42t-85.5 37t-26.5 79h30q0 -36 21 -60
q24 -26 61 -26q39 0 60.5 24.5t21.5 61.5z" />
    <glyph glyph-name="Aogonek" unicode="&#x104;" horiz-adv-x="481" 
d="M485 0h-14q-45 -36 -65 -63t-20 -54q0 -26 13.5 -40.5t37.5 -14.5q27 0 46 16l10 -22q-25 -18 -64 -18q-77 0 -77 73q0 65 91 123l-68 222h-269l-68 -222h-42l222 714h53zM367 256l-123 416h-2l-126 -416h251z" />
    <glyph glyph-name="aogonek" unicode="&#x105;" horiz-adv-x="389" 
d="M332 397v-334q0 -35 23 -35q14 0 24 5v-30q-9 -6 -29 -8q-39 -31 -57 -57q-20 -28 -20 -55q0 -26 13.5 -40.5t37.5 -14.5q27 0 46 16l10 -22q-26 -18 -64 -18q-77 0 -77 73q0 33 25 65q21 29 62 56q-9 2 -16 9q-16 13 -16 44v33h-2q-12 -42 -48.5 -69t-88.5 -27
q-66 0 -98.5 40.5t-32.5 105.5q0 60 25 94.5t81 49.5l113 31q32 9 41.5 25t9.5 52q0 66 -26.5 90.5t-74.5 24.5q-114 0 -114 -127h-38q0 30 6.5 56t21.5 51t46 39.5t74 14.5q80 0 111.5 -37t31.5 -101zM294 197v108h-2q-9 -15 -21.5 -21t-44.5 -14l-77 -21q-45 -13 -64 -40
t-19 -75q0 -112 96 -112q65 0 98.5 47t33.5 128z" />
    <glyph glyph-name="Cacute" unicode="&#x106;" horiz-adv-x="500" 
d="M467 509h-42q0 77 -40.5 130t-115.5 53q-101 0 -145 -86.5t-44 -247.5q0 -76 8.5 -134t28.5 -105t57 -72t89 -25q48 0 84 25.5t53.5 63.5t25.5 70.5t8 58.5h42q0 -28 -5.5 -58.5t-21 -66t-39 -63t-63.5 -46t-91 -18.5q-218 0 -218 368q0 370 229 370q48 0 85 -16t58 -40
t34.5 -55t18 -56.5t4.5 -49.5zM250 770l78 140h48l-93 -140h-33z" />
    <glyph glyph-name="cacute" unicode="&#x107;" horiz-adv-x="389" 
d="M327 171h42q0 -23 -7 -50t-23 -59t-50.5 -53t-81.5 -21q-94 0 -131.5 72.5t-37.5 203.5q0 271 176 271q44 0 76.5 -19.5t47.5 -48.5t21.5 -52.5t6.5 -41.5h-42q0 15 -5 34t-16 41.5t-34.5 37.5t-55.5 15q-70 0 -101.5 -60.5t-31.5 -178.5q0 -125 30.5 -182.5t102.5 -57.5
q34 0 58 17t35.5 43.5t16 48.5t4.5 40zM197 596l78 140h48l-93 -140h-33z" />
    <glyph glyph-name="Ccircumflex" unicode="&#x108;" horiz-adv-x="500" 
d="M467 509h-42q0 77 -40.5 130t-115.5 53q-101 0 -145 -86.5t-44 -247.5q0 -76 8.5 -134t28.5 -105t57 -72t89 -25q48 0 84 25.5t53.5 63.5t25.5 70.5t8 58.5h42q0 -28 -5.5 -58.5t-21 -66t-39 -63t-63.5 -46t-91 -18.5q-218 0 -218 368q0 370 229 370q48 0 85 -16t58 -40
t34.5 -55t18 -56.5t4.5 -49.5zM152 770l94 140h42l94 -140h-42l-73 110l-73 -110h-42z" />
    <glyph glyph-name="ccircumflex" unicode="&#x109;" horiz-adv-x="389" 
d="M327 171h42q0 -23 -7 -50t-23 -59t-50.5 -53t-81.5 -21q-94 0 -131.5 72.5t-37.5 203.5q0 271 176 271q44 0 76.5 -19.5t47.5 -48.5t21.5 -52.5t6.5 -41.5h-42q0 15 -5 34t-16 41.5t-34.5 37.5t-55.5 15q-70 0 -101.5 -60.5t-31.5 -178.5q0 -125 30.5 -182.5t102.5 -57.5
q34 0 58 17t35.5 43.5t16 48.5t4.5 40zM99 596l94 140h42l94 -140h-42l-73 110l-73 -110h-42z" />
    <glyph glyph-name="Cdotaccent" unicode="&#x10a;" horiz-adv-x="500" 
d="M467 509h-42q0 77 -40.5 130t-115.5 53q-101 0 -145 -86.5t-44 -247.5q0 -76 8.5 -134t28.5 -105t57 -72t89 -25q48 0 84 25.5t53.5 63.5t25.5 70.5t8 58.5h42q0 -28 -5.5 -58.5t-21 -66t-39 -63t-63.5 -46t-91 -18.5q-218 0 -218 368q0 370 229 370q48 0 85 -16t58 -40
t34.5 -55t18 -56.5t4.5 -49.5zM245 789v102h42v-102h-42z" />
    <glyph glyph-name="cdotaccent" unicode="&#x10b;" horiz-adv-x="389" 
d="M327 171h42q0 -23 -7 -50t-23 -59t-50.5 -53t-81.5 -21q-94 0 -131.5 72.5t-37.5 203.5q0 271 176 271q44 0 76.5 -19.5t47.5 -48.5t21.5 -52.5t6.5 -41.5h-42q0 15 -5 34t-16 41.5t-34.5 37.5t-55.5 15q-70 0 -101.5 -60.5t-31.5 -178.5q0 -125 30.5 -182.5t102.5 -57.5
q34 0 58 17t35.5 43.5t16 48.5t4.5 40zM191 615v102h42v-102h-42z" />
    <glyph glyph-name="Ccaron" unicode="&#x10c;" horiz-adv-x="500" 
d="M467 509h-42q0 77 -40.5 130t-115.5 53q-101 0 -145 -86.5t-44 -247.5q0 -76 8.5 -134t28.5 -105t57 -72t89 -25q48 0 84 25.5t53.5 63.5t25.5 70.5t8 58.5h42q0 -28 -5.5 -58.5t-21 -66t-39 -63t-63.5 -46t-91 -18.5q-218 0 -218 368q0 370 229 370q48 0 85 -16t58 -40
t34.5 -55t18 -56.5t4.5 -49.5zM244 770l-94 140h42l73 -110l73 110h42l-94 -140h-42z" />
    <glyph glyph-name="ccaron" unicode="&#x10d;" horiz-adv-x="389" 
d="M327 171h42q0 -23 -7 -50t-23 -59t-50.5 -53t-81.5 -21q-94 0 -131.5 72.5t-37.5 203.5q0 271 176 271q44 0 76.5 -19.5t47.5 -48.5t21.5 -52.5t6.5 -41.5h-42q0 15 -5 34t-16 41.5t-34.5 37.5t-55.5 15q-70 0 -101.5 -60.5t-31.5 -178.5q0 -125 30.5 -182.5t102.5 -57.5
q34 0 58 17t35.5 43.5t16 48.5t4.5 40zM192 596l-94 140h42l73 -110l73 110h42l-94 -140h-42z" />
    <glyph glyph-name="Dcaron" unicode="&#x10e;" horiz-adv-x="519" 
d="M61 0v714h163q61 0 104.5 -15t80 -53t54.5 -110t18 -179q0 -85 -14 -149.5t-37 -103t-57 -62.5t-69.5 -33t-79.5 -9h-163zM103 34h121q113 0 164 78.5t51 244.5q0 170 -47.5 246.5t-167.5 76.5h-121v-646zM208 770l-94 140h42l73 -110l73 110h42l-94 -140h-42z" />
    <glyph glyph-name="dcaron" unicode="&#x10f;" horiz-adv-x="466" 
d="M80 263q0 -73 9.5 -123t39 -84t78.5 -34q68 0 98 61t30 180q0 238 -130 238q-67 0 -96 -57.5t-29 -180.5zM335 0v101h-2q-10 -54 -44 -83.5t-88 -29.5q-163 0 -163 275q0 131 37 201.5t128 70.5q95 0 130 -104h2v283h38v-714h-38zM421 574l28 140h47l-47 -140h-28z" />
    <glyph glyph-name="Dcroat" unicode="&#x110;" horiz-adv-x="519" 
d="M283 355h-180v-321h121q113 0 164 78.5t51 244.5q0 170 -47.5 246.5t-167.5 76.5h-121v-289h180v-36zM61 0v355h-60v36h60v323h163q61 0 104.5 -15t80 -53t54.5 -110t18 -179q0 -85 -14 -149.5t-37 -103t-57 -62.5t-69.5 -33t-79.5 -9h-163z" />
    <glyph glyph-name="dcroat" unicode="&#x111;" horiz-adv-x="448" 
d="M335 0v101h-2q-10 -54 -44 -83.5t-88 -29.5q-163 0 -163 275q0 131 37 201.5t128 70.5q95 0 130 -104h2v175h-126v30h126v78h38v-78h75v-30h-75v-606h-38zM80 263q0 -73 9.5 -123t39 -84t78.5 -34q68 0 98 61t30 180q0 238 -130 238q-67 0 -96 -57.5t-29 -180.5z" />
    <glyph glyph-name="Emacron" unicode="&#x112;" 
d="M61 0v714h341v-38h-299v-285h279v-38h-279v-315h308v-38h-350zM123 825v30h216v-30h-216z" />
    <glyph glyph-name="emacron" unicode="&#x113;" horiz-adv-x="407" 
d="M376 264h-296q0 -26 0.5 -40.5t2.5 -43.5t6.5 -47t13.5 -41.5t21.5 -37t33 -23t45.5 -9.5q38 0 65.5 17t40 43.5t17.5 48t5 40.5h38q0 -70 -40.5 -126.5t-121.5 -56.5q-96 0 -132.5 72t-36.5 216q0 123 44 191t131 68q89 0 126 -68.5t37 -202.5zM80 298h254
q0 41 -4.5 72.5t-16.5 63.5t-37.5 49.5t-64.5 17.5q-41 0 -69 -21t-40.5 -56t-17 -64.5t-4.5 -61.5zM106 651v30h216v-30h-216z" />
    <glyph glyph-name="Ebreve" unicode="&#x114;" 
d="M61 0v714h341v-38h-299v-285h279v-38h-279v-315h308v-38h-350zM312 898h30q0 -43 -22 -74q-31 -42 -90 -42t-85.5 37t-26.5 79h30q0 -36 21 -60q24 -26 61 -26q39 0 60.5 24.5t21.5 61.5z" />
    <glyph glyph-name="ebreve" unicode="&#x115;" horiz-adv-x="407" 
d="M376 264h-296q0 -26 0.5 -40.5t2.5 -43.5t6.5 -47t13.5 -41.5t21.5 -37t33 -23t45.5 -9.5q38 0 65.5 17t40 43.5t17.5 48t5 40.5h38q0 -70 -40.5 -126.5t-121.5 -56.5q-96 0 -132.5 72t-36.5 216q0 123 44 191t131 68q89 0 126 -68.5t37 -202.5zM80 298h254
q0 41 -4.5 72.5t-16.5 63.5t-37.5 49.5t-64.5 17.5q-41 0 -69 -21t-40.5 -56t-17 -64.5t-4.5 -61.5zM297 724h30q0 -43 -22 -74q-31 -42 -90 -42t-85.5 37t-26.5 79h30q0 -36 21 -60q24 -26 61 -26q39 0 60.5 24.5t21.5 61.5z" />
    <glyph glyph-name="Edotaccent" unicode="&#x116;" 
d="M61 0v714h341v-38h-299v-285h279v-38h-279v-315h308v-38h-350zM212 789v102h42v-102h-42z" />
    <glyph glyph-name="edotaccent" unicode="&#x117;" horiz-adv-x="407" 
d="M376 264h-296q0 -26 0.5 -40.5t2.5 -43.5t6.5 -47t13.5 -41.5t21.5 -37t33 -23t45.5 -9.5q38 0 65.5 17t40 43.5t17.5 48t5 40.5h38q0 -70 -40.5 -126.5t-121.5 -56.5q-96 0 -132.5 72t-36.5 216q0 123 44 191t131 68q89 0 126 -68.5t37 -202.5zM80 298h254
q0 41 -4.5 72.5t-16.5 63.5t-37.5 49.5t-64.5 17.5q-41 0 -69 -21t-40.5 -56t-17 -64.5t-4.5 -61.5zM189 615v102h42v-102h-42z" />
    <glyph glyph-name="Eogonek" unicode="&#x118;" 
d="M411 0h-21q-45 -36 -65 -63t-20 -54q0 -26 13.5 -40.5t37.5 -14.5q27 0 46 16l10 -22q-25 -18 -64 -18q-77 0 -77 73q0 65 91 123h-301v714h341v-38h-299v-285h279v-38h-279v-315h308v-38z" />
    <glyph glyph-name="eogonek" unicode="&#x119;" horiz-adv-x="407" 
d="M376 264h-296q0 -26 0.5 -40.5t2.5 -43.5t6.5 -47t13.5 -41.5t21.5 -37t33 -23t45.5 -9.5q38 0 65.5 17t40 43.5t17.5 48t5 40.5h38q0 -115 -87 -166q-21 -10 -47 -15q-35 -29 -52 -52q-20 -28 -20 -55q0 -26 13.5 -40.5t37.5 -14.5q27 0 46 16l10 -22q-25 -18 -64 -18
q-77 0 -77 73q0 33 25 65q19 24 48 46q-49 2 -79 20q-47 29 -66 95t-19 173q0 123 44 191t131 68q89 0 126 -68.5t37 -202.5zM80 298h254q0 41 -4.5 72.5t-16.5 63.5t-37.5 49.5t-64.5 17.5q-41 0 -69 -21t-40.5 -56t-17 -64.5t-4.5 -61.5z" />
    <glyph glyph-name="Ecaron" unicode="&#x11a;" 
d="M61 0v714h341v-38h-299v-285h279v-38h-279v-315h308v-38h-350zM211 770l-94 140h42l73 -110l73 110h42l-94 -140h-42z" />
    <glyph glyph-name="ecaron" unicode="&#x11b;" horiz-adv-x="407" 
d="M376 264h-296q0 -26 0.5 -40.5t2.5 -43.5t6.5 -47t13.5 -41.5t21.5 -37t33 -23t45.5 -9.5q38 0 65.5 17t40 43.5t17.5 48t5 40.5h38q0 -70 -40.5 -126.5t-121.5 -56.5q-96 0 -132.5 72t-36.5 216q0 123 44 191t131 68q89 0 126 -68.5t37 -202.5zM80 298h254
q0 41 -4.5 72.5t-16.5 63.5t-37.5 49.5t-64.5 17.5q-41 0 -69 -21t-40.5 -56t-17 -64.5t-4.5 -61.5zM189 596l-94 140h42l73 -110l73 110h42l-94 -140h-42z" />
    <glyph glyph-name="Gcircumflex" unicode="&#x11c;" horiz-adv-x="519" 
d="M447 0v144h-2q-18 -74 -66 -115t-122 -41q-219 0 -219 368q0 370 229 370q48 0 85 -16t58 -40t34.5 -55t18 -56.5t4.5 -49.5h-42q0 77 -40.5 130t-115.5 53q-101 0 -145 -86.5t-44 -247.5q0 -76 8.5 -134t28.5 -105t57 -72t89 -25q64 0 105 39.5t56 94.5t15 123v44h-196
v34h238v-357h-34zM153 770l94 140h42l94 -140h-42l-73 110l-73 -110h-42z" />
    <glyph glyph-name="gcircumflex" unicode="&#x11d;" 
d="M373 523v-494q0 -104 -38 -158.5t-130 -54.5q-38 0 -66 11.5t-42 26.5t-22 35t-10 32.5t-2 24.5h38q0 -43 27 -69.5t81 -26.5q66 0 96 38.5t30 121.5v96h-3q-7 -21 -15.5 -36.5t-23.5 -33t-40 -27t-58 -9.5q-157 0 -157 264q0 47 4 84t14.5 73t28.5 60t48 39t70 15
q98 0 130 -99h2v87h38zM80 264q0 -110 28.5 -170t98.5 -60q128 0 128 238q0 229 -123 229q-66 0 -99 -54t-33 -183zM109 596l94 140h42l94 -140h-42l-73 110l-73 -110h-42z" />
    <glyph glyph-name="Gbreve" unicode="&#x11e;" horiz-adv-x="519" 
d="M447 0v144h-2q-18 -74 -66 -115t-122 -41q-219 0 -219 368q0 370 229 370q48 0 85 -16t58 -40t34.5 -55t18 -56.5t4.5 -49.5h-42q0 77 -40.5 130t-115.5 53q-101 0 -145 -86.5t-44 -247.5q0 -76 8.5 -134t28.5 -105t57 -72t89 -25q64 0 105 39.5t56 94.5t15 123v44h-196
v34h238v-357h-34zM351 898h30q0 -43 -22 -74q-31 -42 -90 -42t-85.5 37t-26.5 79h30q0 -36 21 -60q24 -26 61 -26q39 0 60.5 24.5t21.5 61.5z" />
    <glyph glyph-name="gbreve" unicode="&#x11f;" 
d="M373 523v-494q0 -104 -38 -158.5t-130 -54.5q-38 0 -66 11.5t-42 26.5t-22 35t-10 32.5t-2 24.5h38q0 -43 27 -69.5t81 -26.5q66 0 96 38.5t30 121.5v96h-3q-7 -21 -15.5 -36.5t-23.5 -33t-40 -27t-58 -9.5q-157 0 -157 264q0 47 4 84t14.5 73t28.5 60t48 39t70 15
q98 0 130 -99h2v87h38zM80 264q0 -110 28.5 -170t98.5 -60q128 0 128 238q0 229 -123 229q-66 0 -99 -54t-33 -183zM305 724h30q0 -43 -22 -74q-31 -42 -90 -42t-85.5 37t-26.5 79h30q0 -36 21 -60q24 -26 61 -26q39 0 60.5 24.5t21.5 61.5z" />
    <glyph glyph-name="Gdotaccent" unicode="&#x120;" horiz-adv-x="519" 
d="M447 0v144h-2q-18 -74 -66 -115t-122 -41q-219 0 -219 368q0 370 229 370q48 0 85 -16t58 -40t34.5 -55t18 -56.5t4.5 -49.5h-42q0 77 -40.5 130t-115.5 53q-101 0 -145 -86.5t-44 -247.5q0 -76 8.5 -134t28.5 -105t57 -72t89 -25q64 0 105 39.5t56 94.5t15 123v44h-196
v34h238v-357h-34zM245 789v102h42v-102h-42z" />
    <glyph glyph-name="gdotaccent" unicode="&#x121;" 
d="M373 523v-494q0 -104 -38 -158.5t-130 -54.5q-38 0 -66 11.5t-42 26.5t-22 35t-10 32.5t-2 24.5h38q0 -43 27 -69.5t81 -26.5q66 0 96 38.5t30 121.5v96h-3q-7 -21 -15.5 -36.5t-23.5 -33t-40 -27t-58 -9.5q-157 0 -157 264q0 47 4 84t14.5 73t28.5 60t48 39t70 15
q98 0 130 -99h2v87h38zM80 264q0 -110 28.5 -170t98.5 -60q128 0 128 238q0 229 -123 229q-66 0 -99 -54t-33 -183zM196 615v102h42v-102h-42z" />
    <glyph glyph-name="Gcommaaccent" unicode="&#x122;" horiz-adv-x="519" 
d="M447 0v144h-2q-18 -74 -66 -115t-122 -41q-219 0 -219 368q0 370 229 370q48 0 85 -16t58 -40t34.5 -55t18 -56.5t4.5 -49.5h-42q0 77 -40.5 130t-115.5 53q-101 0 -145 -86.5t-44 -247.5q0 -76 8.5 -134t28.5 -105t57 -72t89 -25q64 0 105 39.5t56 94.5t15 123v44h-196
v34h238v-357h-34zM242 -137v87h47v-85q0 -56 -52 -69v20q26 11 26 47h-21z" />
    <glyph glyph-name="gcommaaccent" unicode="&#x123;" 
d="M373 523v-494q0 -104 -38 -158.5t-130 -54.5q-38 0 -66 11.5t-42 26.5t-22 35t-10 32.5t-2 24.5h38q0 -43 27 -69.5t81 -26.5q66 0 96 38.5t30 121.5v96h-3q-7 -21 -15.5 -36.5t-23.5 -33t-40 -27t-58 -9.5q-157 0 -157 264q0 47 4 84t14.5 73t28.5 60t48 39t70 15
q98 0 130 -99h2v87h38zM80 264q0 -110 28.5 -170t98.5 -60q128 0 128 238q0 229 -123 229q-66 0 -99 -54t-33 -183zM237 714v-87h-47v85q0 56 52 69v-20q-26 -11 -26 -47h21z" />
    <glyph glyph-name="Hcircumflex" unicode="&#x124;" horiz-adv-x="519" 
d="M61 0v714h42v-313h313v313h42v-714h-42v363h-313v-363h-42zM143 770l94 140h42l94 -140h-42l-73 110l-73 -110h-42z" />
    <glyph glyph-name="hcircumflex" unicode="&#x125;" horiz-adv-x="407" 
d="M51 0v714h38v-270h2q16 39 49.5 65t83.5 26q60 0 96 -35t36 -106v-394h-38v376q0 67 -26.5 96t-77.5 29q-58 0 -91.5 -47t-33.5 -119v-335h-38zM87 770l94 140h42l94 -140h-42l-73 110l-73 -110h-42z" />
    <glyph glyph-name="Hbar" unicode="&#x126;" horiz-adv-x="519" 
d="M61 0v714h42v-191h313v191h42v-714h-42v363h-313v-363h-42zM103 401h313v92h-313v-92z" />
    <glyph glyph-name="hbar" unicode="&#x127;" 
d="M0 606v30h70v78h38v-78h121v-30h-121v-162h2q16 39 49.5 65t83.5 26q60 0 96 -35t36 -106v-394h-38v376q0 67 -26.5 96t-77.5 29q-58 0 -91.5 -47t-33.5 -119v-335h-38v606h-70z" />
    <glyph glyph-name="Itilde" unicode="&#x128;" horiz-adv-x="164" 
d="M61 0v714h42v-714h-42zM174 885h30q0 -30 -16.5 -58t-51.5 -28q-25 -1 -59 25t-49 26q-38 0 -38 -55h-30q0 29 16.5 57t51.5 28q27 1 59 -25q34 -26 49 -26q21 0 29.5 18t8.5 38z" />
    <glyph glyph-name="itilde" unicode="&#x129;" horiz-adv-x="148" 
d="M55 0v523h38v-523h-38zM165 711h30q0 -30 -16.5 -58t-51.5 -28q-25 -1 -59 25t-49 26q-38 0 -38 -55h-30q0 29 16.5 57t51.5 28q27 1 59 -25q34 -26 49 -26q21 0 29.5 18t8.5 38z" />
    <glyph glyph-name="Imacron" unicode="&#x12a;" horiz-adv-x="164" 
d="M61 0v714h42v-714h-42zM-26 825v30h216v-30h-216z" />
    <glyph glyph-name="imacron" unicode="&#x12b;" horiz-adv-x="148" 
d="M55 0v523h38v-523h-38zM-34 651v30h216v-30h-216z" />
    <glyph glyph-name="Iogonek" unicode="&#x12e;" horiz-adv-x="164" 
d="M103 714v-714q-77 -66 -77 -117q0 -55 46 -55q24 0 41 16l9 -22q-22 -18 -57 -18q-70 0 -70 73q0 64 82 123h-16v714h42z" />
    <glyph glyph-name="iogonek" unicode="&#x12f;" horiz-adv-x="148" 
d="M93 523v-523q-77 -66 -77 -117q0 -55 46 -55q24 0 41 16l9 -22q-22 -18 -57 -18q-70 0 -70 73q0 64 82 123h-12v523h38zM55 612v102h38v-102h-38z" />
    <glyph glyph-name="Idotaccent" unicode="&#x130;" horiz-adv-x="164" 
d="M61 0v714h42v-714h-42zM61 789v102h42v-102h-42z" />
    <glyph glyph-name="dotlessi" unicode="&#x131;" horiz-adv-x="148" 
d="M55 0v523h38v-523h-38z" />
    <glyph glyph-name="Jcircumflex" unicode="&#x134;" horiz-adv-x="407" 
d="M66 209v-22q0 -165 116 -165q53 0 87.5 32.5t34.5 108.5v551h42v-551q0 -86 -43.5 -130.5t-117.5 -44.5q-89 0 -125 53.5t-36 151.5v16h42zM208 770l94 140h42l94 -140h-42l-73 110l-73 -110h-42z" />
    <glyph glyph-name="jcircumflex" unicode="&#x135;" horiz-adv-x="148" 
d="M-38 -176v34q18 -2 28 -2q19 0 31.5 4t23 21.5t10.5 48.5v593h38v-589q0 -112 -95 -112q-12 0 -36 2zM-44 596l94 140h42l94 -140h-42l-73 110l-73 -110h-42z" />
    <glyph glyph-name="Kcommaaccent" unicode="&#x136;" horiz-adv-x="463" 
d="M61 0v714h42v-397h2l295 397h46l-224 -301l246 -413h-48l-225 378l-92 -122v-256h-42zM216 -137v87h47v-85q0 -56 -52 -69v20q26 11 26 47h-21z" />
    <glyph glyph-name="kcommaaccent" unicode="&#x137;" horiz-adv-x="389" 
d="M51 0v714h38v-469h2l226 278h48l-162 -194l191 -329h-48l-170 295l-87 -103v-192h-38zM179 -137v87h47v-85q0 -56 -52 -69v20q26 11 26 47h-21z" />
    <glyph glyph-name="Lacute" unicode="&#x139;" 
d="M61 0v714h42v-676h299v-38h-341zM65 770l78 140h48l-93 -140h-33z" />
    <glyph glyph-name="lacute" unicode="&#x13a;" horiz-adv-x="148" 
d="M55 0v714h38v-714h-38zM56 770l78 140h48l-93 -140h-33z" />
    <glyph glyph-name="Lcommaaccent" unicode="&#x13b;" 
d="M61 0v714h42v-676h299v-38h-341zM195 -137v87h47v-85q0 -56 -52 -69v20q26 11 26 47h-21z" />
    <glyph glyph-name="lcommaaccent" unicode="&#x13c;" horiz-adv-x="148" 
d="M55 0v714h38v-714h-38zM50 -137v87h47v-85q0 -56 -52 -69v20q26 11 26 47h-21z" />
    <glyph glyph-name="Lcaron" unicode="&#x13d;" 
d="M61 0v714h42v-676h299v-38h-341zM185 574l28 140h47l-47 -140h-28z" />
    <glyph glyph-name="lcaron" unicode="&#x13e;" horiz-adv-x="185" 
d="M55 0v714h38v-714h-38zM140 574l28 140h47l-47 -140h-28z" />
    <glyph glyph-name="Ldot" unicode="&#x13f;" 
d="M61 0v714h42v-676h299v-38h-341zM206 421v102h42v-102h-42z" />
    <glyph glyph-name="ldot" unicode="&#x140;" horiz-adv-x="227" 
d="M55 0v714h38v-714h-38zM151 421v102h42v-102h-42z" />
    <glyph glyph-name="Lslash" unicode="&#x141;" 
d="M61 0v301l-71 -55v46l71 55v367h42v-335l187 144v-46l-187 -144v-295h299v-38h-341z" />
    <glyph glyph-name="lslash" unicode="&#x142;" horiz-adv-x="148" 
d="M55 0v324h-2l-53 -66v52l55 66v338h38v-298h2l53 66v-52l-55 -66v-364h-38z" />
    <glyph glyph-name="Nacute" unicode="&#x143;" horiz-adv-x="519" 
d="M54 714h56l311 -648h2v648h42v-714h-55l-312 648h-2v-648h-42v714zM237 770l78 140h48l-93 -140h-33z" />
    <glyph glyph-name="nacute" unicode="&#x144;" horiz-adv-x="407" 
d="M51 0v523h38v-79h2q16 39 49.5 65t83.5 26q60 0 96 -35t36 -106v-394h-38v376q0 67 -26.5 96t-77.5 29q-58 0 -91.5 -47t-33.5 -119v-335h-38zM181 596l78 140h48l-93 -140h-33z" />
    <glyph glyph-name="Ncommaaccent" unicode="&#x145;" horiz-adv-x="519" 
d="M54 714h56l311 -648h2v648h42v-714h-55l-312 648h-2v-648h-42v714zM230 -137v87h47v-85q0 -56 -52 -69v20q26 11 26 47h-21z" />
    <glyph glyph-name="ncommaaccent" unicode="&#x146;" horiz-adv-x="407" 
d="M51 0v523h38v-79h2q16 39 49.5 65t83.5 26q60 0 96 -35t36 -106v-394h-38v376q0 67 -26.5 96t-77.5 29q-58 0 -91.5 -47t-33.5 -119v-335h-38zM180 -137v87h47v-85q0 -56 -52 -69v20q26 11 26 47h-21z" />
    <glyph glyph-name="Ncaron" unicode="&#x147;" horiz-adv-x="519" 
d="M54 714h56l311 -648h2v648h42v-714h-55l-312 648h-2v-648h-42v714zM238 770l-94 140h42l73 -110l73 110h42l-94 -140h-42z" />
    <glyph glyph-name="ncaron" unicode="&#x148;" horiz-adv-x="407" 
d="M51 0v523h38v-79h2q16 39 49.5 65t83.5 26q60 0 96 -35t36 -106v-394h-38v376q0 67 -26.5 96t-77.5 29q-58 0 -91.5 -47t-33.5 -119v-335h-38zM180 596l-94 140h42l73 -110l73 110h42l-94 -140h-42z" />
    <glyph glyph-name="Omacron" unicode="&#x14c;" horiz-adv-x="537" 
d="M269 692q-189 0 -189 -335q0 -105 15.5 -175.5t58.5 -115t115 -44.5q98 0 143 81.5t45 253.5q0 158 -43 246.5t-145 88.5zM269 726q112 0 171 -85t59 -284q0 -111 -21 -188.5t-57 -114.5t-72.5 -51.5t-79.5 -14.5q-231 0 -231 369t231 369zM161 825v30h216v-30h-216z" />
    <glyph glyph-name="omacron" unicode="&#x14d;" 
d="M346 261q0 119 -30.5 179.5t-102.5 60.5t-102.5 -60.5t-30.5 -179.5q0 -118 30.5 -178.5t102.5 -60.5t102.5 60.5t30.5 178.5zM388 262q0 -61 -8 -107.5t-27 -85.5t-55 -60t-88 -21q-50 0 -85 21t-53 60t-26 85.5t-8 107.5t8 107t27 85t55 60t88 21q50 0 85 -21t53 -60
t26 -85.5t8 -106.5zM106 651v30h216v-30h-216z" />
    <glyph glyph-name="Obreve" unicode="&#x14e;" horiz-adv-x="537" 
d="M269 692q-189 0 -189 -335q0 -105 15.5 -175.5t58.5 -115t115 -44.5q98 0 143 81.5t45 253.5q0 158 -43 246.5t-145 88.5zM269 726q112 0 171 -85t59 -284q0 -111 -21 -188.5t-57 -114.5t-72.5 -51.5t-79.5 -14.5q-231 0 -231 369t231 369zM350 898h30q0 -43 -22 -74
q-31 -42 -90 -42t-85.5 37t-26.5 79h30q0 -36 21 -60q24 -26 61 -26q39 0 60.5 24.5t21.5 61.5z" />
    <glyph glyph-name="obreve" unicode="&#x14f;" 
d="M346 261q0 119 -30.5 179.5t-102.5 60.5t-102.5 -60.5t-30.5 -179.5q0 -118 30.5 -178.5t102.5 -60.5t102.5 60.5t30.5 178.5zM388 262q0 -61 -8 -107.5t-27 -85.5t-55 -60t-88 -21q-50 0 -85 21t-53 60t-26 85.5t-8 107.5t8 107t27 85t55 60t88 21q50 0 85 -21t53 -60
t26 -85.5t8 -106.5zM295 724h30q0 -43 -22 -74q-31 -42 -90 -42t-85.5 37t-26.5 79h30q0 -36 21 -60q24 -26 61 -26q39 0 60.5 24.5t21.5 61.5z" />
    <glyph glyph-name="Ohungarumlaut" unicode="&#x150;" horiz-adv-x="537" 
d="M269 692q-189 0 -189 -335q0 -105 15.5 -175.5t58.5 -115t115 -44.5q98 0 143 81.5t45 253.5q0 158 -43 246.5t-145 88.5zM269 726q112 0 171 -85t59 -284q0 -111 -21 -188.5t-57 -114.5t-72.5 -51.5t-79.5 -14.5q-231 0 -231 369t231 369zM324 770l78 140h48l-93 -140
h-33zM190 770l78 140h48l-93 -140h-33z" />
    <glyph glyph-name="ohungarumlaut" unicode="&#x151;" 
d="M346 261q0 119 -30.5 179.5t-102.5 60.5t-102.5 -60.5t-30.5 -179.5q0 -118 30.5 -178.5t102.5 -60.5t102.5 60.5t30.5 178.5zM388 262q0 -61 -8 -107.5t-27 -85.5t-55 -60t-88 -21q-50 0 -85 21t-53 60t-26 85.5t-8 107.5t8 107t27 85t55 60t88 21q50 0 85 -21t53 -60
t26 -85.5t8 -106.5zM269 596l78 140h48l-93 -140h-33zM135 596l78 140h48l-93 -140h-33z" />
    <glyph glyph-name="OE" unicode="&#x152;" horiz-adv-x="778" 
d="M418 175v364q0 79 -33.5 116t-106.5 37q-100 0 -143 -85t-43 -250t43 -250t143 -85q73 0 106.5 37t33.5 116zM460 38h298v-38h-340v60h-2q-37 -72 -145 -72q-117 0 -169 94.5t-52 274.5t52 274.5t169 94.5q36 0 65 -8t45.5 -21t23.5 -21.5t11 -15.5h2v54h327v-38h-285
v-285h264v-38h-264v-315z" />
    <glyph glyph-name="oe" unicode="&#x153;" horiz-adv-x="685" 
d="M375 298h230q0 93 -27.5 148t-86.5 55q-60 0 -88 -55t-28 -148zM80 262q0 -119 30.5 -179.5t102.5 -60.5q71 0 97.5 59t26.5 181q0 121 -26.5 180t-97.5 59q-133 0 -133 -239zM647 264h-272v-29q0 -213 113 -213q34 0 58 17t35.5 43.5t16 48.5t4.5 40h38
q0 -70 -39 -126.5t-114 -56.5q-56 0 -91 38t-41 94h-2q-4 -56 -40.5 -94t-99.5 -38q-97 0 -136 72t-39 201q0 81 16.5 140.5t56.5 96.5t102 37q61 0 97 -37.5t43 -93.5h2q9 55 44 93t92 38q156 0 156 -271z" />
    <glyph glyph-name="Racute" unicode="&#x154;" horiz-adv-x="500" 
d="M103 365h134q168 0 168 162q0 72 -37.5 112.5t-103.5 40.5h-161v-315zM61 0v714h209q79 0 128 -47t49 -140q0 -73 -37.5 -121t-105.5 -56v-2q81 -6 109.5 -49.5t28.5 -127.5v-75q0 -59 24 -96h-48q-18 34 -18 97v73q0 82 -30.5 121.5t-112.5 39.5h-154v-331h-42zM204 770
l78 140h48l-93 -140h-33z" />
    <glyph glyph-name="racute" unicode="&#x155;" horiz-adv-x="241" 
d="M51 0v523h38v-91h2q33 103 131 103h22v-34h-22q-62 0 -97.5 -50t-35.5 -119v-332h-38zM59 596l78 140h48l-93 -140h-33z" />
    <glyph glyph-name="Rcommaaccent" unicode="&#x156;" horiz-adv-x="500" 
d="M103 365h134q168 0 168 162q0 72 -37.5 112.5t-103.5 40.5h-161v-315zM61 0v714h209q79 0 128 -47t49 -140q0 -73 -37.5 -121t-105.5 -56v-2q81 -6 109.5 -49.5t28.5 -127.5v-75q0 -59 24 -96h-48q-18 34 -18 97v73q0 82 -30.5 121.5t-112.5 39.5h-154v-331h-42z
M223 -137v87h47v-85q0 -56 -52 -69v20q26 11 26 47h-21z" />
    <glyph glyph-name="rcommaaccent" unicode="&#x157;" horiz-adv-x="241" 
d="M51 0v523h38v-91h2q33 103 131 103h22v-34h-22q-62 0 -97.5 -50t-35.5 -119v-332h-38zM48 -137v87h47v-85q0 -56 -52 -69v20q26 11 26 47h-21z" />
    <glyph glyph-name="Rcaron" unicode="&#x158;" horiz-adv-x="500" 
d="M103 365h134q168 0 168 162q0 72 -37.5 112.5t-103.5 40.5h-161v-315zM61 0v714h209q79 0 128 -47t49 -140q0 -73 -37.5 -121t-105.5 -56v-2q81 -6 109.5 -49.5t28.5 -127.5v-75q0 -59 24 -96h-48q-18 34 -18 97v73q0 82 -30.5 121.5t-112.5 39.5h-154v-331h-42zM205 770
l-94 140h42l73 -110l73 110h42l-94 -140h-42z" />
    <glyph glyph-name="rcaron" unicode="&#x159;" horiz-adv-x="241" 
d="M51 0v523h38v-91h2q33 103 131 103h22v-34h-22q-62 0 -97.5 -50t-35.5 -119v-332h-38zM124 596l-94 140h42l73 -110l73 110h42l-94 -140h-42z" />
    <glyph glyph-name="Sacute" unicode="&#x15a;" horiz-adv-x="481" 
d="M77 220v-37q0 -70 43.5 -115.5t118.5 -45.5q73 0 119 46.5t46 115.5q0 65 -31 96.5t-99 56.5l-81 28q-75 25 -110 65t-35 110q0 85 53 135.5t138 50.5q96 0 143.5 -51t47.5 -143h-42q0 75 -36 117.5t-109 42.5q-67 0 -110 -35t-43 -113q0 -103 105 -138l106 -37
q74 -26 109.5 -66.5t35.5 -115.5q0 -93 -59.5 -146t-147.5 -53q-58 0 -100.5 18.5t-63.5 48.5t-30.5 59.5t-9.5 58.5v47h42zM219 770l78 140h48l-93 -140h-33z" />
    <glyph glyph-name="sacute" unicode="&#x15b;" horiz-adv-x="352" 
d="M313 376h-38v15q0 110 -98 110q-45 0 -73 -24t-28 -73q0 -41 18.5 -64t59.5 -39l80 -30q95 -36 95 -139q0 -64 -43.5 -104t-107.5 -40q-155 0 -155 165v14h38v-17q0 -128 117 -128q55 0 82 31t27 78q0 40 -17.5 65t-60.5 42l-77 31q-51 21 -74.5 51.5t-23.5 79.5
q0 64 39 99.5t104 35.5q136 0 136 -143v-16zM159 596l78 140h48l-93 -140h-33z" />
    <glyph glyph-name="Scircumflex" unicode="&#x15c;" horiz-adv-x="481" 
d="M77 220v-37q0 -70 43.5 -115.5t118.5 -45.5q73 0 119 46.5t46 115.5q0 65 -31 96.5t-99 56.5l-81 28q-75 25 -110 65t-35 110q0 85 53 135.5t138 50.5q96 0 143.5 -51t47.5 -143h-42q0 75 -36 117.5t-109 42.5q-67 0 -110 -35t-43 -113q0 -103 105 -138l106 -37
q74 -26 109.5 -66.5t35.5 -115.5q0 -93 -59.5 -146t-147.5 -53q-58 0 -100.5 18.5t-63.5 48.5t-30.5 59.5t-9.5 58.5v47h42zM130 770l94 140h42l94 -140h-42l-73 110l-73 -110h-42z" />
    <glyph glyph-name="scircumflex" unicode="&#x15d;" horiz-adv-x="352" 
d="M313 376h-38v15q0 110 -98 110q-45 0 -73 -24t-28 -73q0 -41 18.5 -64t59.5 -39l80 -30q95 -36 95 -139q0 -64 -43.5 -104t-107.5 -40q-155 0 -155 165v14h38v-17q0 -128 117 -128q55 0 82 31t27 78q0 40 -17.5 65t-60.5 42l-77 31q-51 21 -74.5 51.5t-23.5 79.5
q0 64 39 99.5t104 35.5q136 0 136 -143v-16zM64 596l94 140h42l94 -140h-42l-73 110l-73 -110h-42z" />
    <glyph glyph-name="Scedilla" unicode="&#x15e;" horiz-adv-x="481" 
d="M77 220v-37q0 -70 43.5 -115.5t118.5 -45.5q73 0 119 46.5t46 115.5q0 65 -31 96.5t-99 56.5l-81 28q-75 25 -110 65t-35 110q0 85 53 135.5t138 50.5q96 0 143.5 -51t47.5 -143h-42q0 75 -36 117.5t-109 42.5q-67 0 -110 -35t-43 -113q0 -103 105 -138l106 -37
q74 -26 109.5 -66.5t35.5 -115.5q0 -92 -59.5 -145.5t-146.5 -53.5l-33 -47l2 -2q15 5 38 5q28 0 48.5 -18.5t20.5 -47.5q0 -28 -25.5 -51t-73.5 -23q-51 0 -84 18l9 22q34 -16 77 -16q63 0 63 49q0 43 -54 43q-29 0 -53 -14l-10 12l46 71q-42 4 -74 18q-55 27 -78.5 72.5
t-23.5 93.5v47h42z" />
    <glyph glyph-name="Scedilla" unicode="&#xf6c1;" horiz-adv-x="481" 
d="M77 220v-37q0 -70 43.5 -115.5t118.5 -45.5q73 0 119 46.5t46 115.5q0 65 -31 96.5t-99 56.5l-81 28q-75 25 -110 65t-35 110q0 85 53 135.5t138 50.5q96 0 143.5 -51t47.5 -143h-42q0 75 -36 117.5t-109 42.5q-67 0 -110 -35t-43 -113q0 -103 105 -138l106 -37
q74 -26 109.5 -66.5t35.5 -115.5q0 -92 -59.5 -145.5t-146.5 -53.5l-33 -47l2 -2q15 5 38 5q28 0 48.5 -18.5t20.5 -47.5q0 -28 -25.5 -51t-73.5 -23q-51 0 -84 18l9 22q34 -16 77 -16q63 0 63 49q0 43 -54 43q-29 0 -53 -14l-10 12l46 71q-42 4 -74 18q-55 27 -78.5 72.5
t-23.5 93.5v47h42z" />
    <glyph glyph-name="scedilla" unicode="&#x15f;" horiz-adv-x="352" 
d="M313 376h-38v15q0 110 -98 110q-45 0 -73 -24t-28 -73q0 -41 18.5 -64t59.5 -39l80 -30q95 -36 95 -139q0 -64 -43.5 -104t-107.5 -40h-1l-33 -47l2 -2q15 5 38 5q28 0 48.5 -18.5t20.5 -47.5q0 -28 -25.5 -51t-73.5 -23q-51 0 -84 18l9 22q34 -16 77 -16q63 0 63 49
q0 43 -54 43q-29 0 -53 -14l-10 12l47 72q-33 3 -56 15q-70 39 -70 148v14h38v-17q0 -128 117 -128q55 0 82 31t27 78q0 40 -17.5 65t-60.5 42l-77 31q-51 21 -74.5 51.5t-23.5 79.5q0 64 39 99.5t104 35.5q136 0 136 -143v-16z" />
    <glyph glyph-name="scedilla" unicode="&#xf6c2;" horiz-adv-x="352" 
d="M313 376h-38v15q0 110 -98 110q-45 0 -73 -24t-28 -73q0 -41 18.5 -64t59.5 -39l80 -30q95 -36 95 -139q0 -64 -43.5 -104t-107.5 -40h-1l-33 -47l2 -2q15 5 38 5q28 0 48.5 -18.5t20.5 -47.5q0 -28 -25.5 -51t-73.5 -23q-51 0 -84 18l9 22q34 -16 77 -16q63 0 63 49
q0 43 -54 43q-29 0 -53 -14l-10 12l47 72q-33 3 -56 15q-70 39 -70 148v14h38v-17q0 -128 117 -128q55 0 82 31t27 78q0 40 -17.5 65t-60.5 42l-77 31q-51 21 -74.5 51.5t-23.5 79.5q0 64 39 99.5t104 35.5q136 0 136 -143v-16z" />
    <glyph glyph-name="Scaron" unicode="&#x160;" horiz-adv-x="481" 
d="M77 220v-37q0 -70 43.5 -115.5t118.5 -45.5q73 0 119 46.5t46 115.5q0 65 -31 96.5t-99 56.5l-81 28q-75 25 -110 65t-35 110q0 85 53 135.5t138 50.5q96 0 143.5 -51t47.5 -143h-42q0 75 -36 117.5t-109 42.5q-67 0 -110 -35t-43 -113q0 -103 105 -138l106 -37
q74 -26 109.5 -66.5t35.5 -115.5q0 -93 -59.5 -146t-147.5 -53q-58 0 -100.5 18.5t-63.5 48.5t-30.5 59.5t-9.5 58.5v47h42zM223 770l-94 140h42l73 -110l73 110h42l-94 -140h-42z" />
    <glyph glyph-name="scaron" unicode="&#x161;" horiz-adv-x="352" 
d="M313 376h-38v15q0 110 -98 110q-45 0 -73 -24t-28 -73q0 -41 18.5 -64t59.5 -39l80 -30q95 -36 95 -139q0 -64 -43.5 -104t-107.5 -40q-155 0 -155 165v14h38v-17q0 -128 117 -128q55 0 82 31t27 78q0 40 -17.5 65t-60.5 42l-77 31q-51 21 -74.5 51.5t-23.5 79.5
q0 64 39 99.5t104 35.5q136 0 136 -143v-16zM158 596l-94 140h42l73 -110l73 110h42l-94 -140h-42z" />
    <glyph glyph-name="Tcommaaccent" unicode="&#x162;" 
d="M192 0v676h-190v38h422v-38h-190v-676h-42zM190 -137v87h47v-85q0 -56 -52 -69v20q26 11 26 47h-21z" />
    <glyph glyph-name="tcommaaccent" unicode="&#x163;" horiz-adv-x="204" 
d="M8 489v34h71v155h38v-155h87v-34h-87v-403q0 -58 46 -58q27 0 47 6v-34q-28 -6 -54 -6q-77 0 -77 88v407h-71zM116 -137v87h47v-85q0 -56 -52 -69v20q26 11 26 47h-21z" />
    <glyph glyph-name="Tcaron" unicode="&#x164;" 
d="M192 0v676h-190v38h422v-38h-190v-676h-42zM193 770l-94 140h42l73 -110l73 110h42l-94 -140h-42z" />
    <glyph glyph-name="tcaron" unicode="&#x165;" horiz-adv-x="261" 
d="M192 574l28 140h47l-47 -140h-28zM8 489v34h71v155h38v-155h87v-34h-87v-403q0 -58 46 -58q27 0 47 6v-34q-28 -6 -54 -6q-77 0 -77 88v407h-71z" />
    <glyph glyph-name="Tbar" unicode="&#x166;" 
d="M65 454v30h127v192h-190v38h422v-38h-190v-192h127v-30h-127v-454h-42v454h-127z" />
    <glyph glyph-name="tbar" unicode="&#x167;" horiz-adv-x="204" 
d="M0 316v30h79v143h-71v34h71v155h38v-155h87v-34h-87v-143h95v-30h-95v-230q0 -58 46 -58q27 0 47 6v-34q-28 -6 -54 -6q-77 0 -77 88v234h-79z" />
    <glyph glyph-name="Utilde" unicode="&#x168;" horiz-adv-x="500" 
d="M94 714v-525q0 -167 156 -167q76 0 116 45t40 122v525h42v-517q0 -111 -56.5 -160t-141.5 -49q-198 0 -198 209v517h42zM344 885h30q0 -30 -16.5 -58t-51.5 -28q-25 -1 -59 25t-49 26q-38 0 -38 -55h-30q0 29 16.5 57t51.5 28q27 1 59 -25q34 -26 49 -26q21 0 29.5 18
t8.5 38z" />
    <glyph glyph-name="utilde" unicode="&#x169;" horiz-adv-x="407" 
d="M356 523v-523h-38v79h-2q-38 -91 -133 -91q-60 0 -96 35t-36 106v394h38v-376q0 -67 26.5 -96t77.5 -29q58 0 91.5 47t33.5 119v335h38zM298 711h30q0 -30 -16.5 -58t-51.5 -28q-25 -1 -59 25t-49 26q-38 0 -38 -55h-30q0 29 16.5 57t51.5 28q27 1 59 -25q34 -26 49 -26
q21 0 29.5 18t8.5 38z" />
    <glyph glyph-name="Umacron" unicode="&#x16a;" horiz-adv-x="500" 
d="M94 714v-525q0 -167 156 -167q76 0 116 45t40 122v525h42v-517q0 -111 -56.5 -160t-141.5 -49q-198 0 -198 209v517h42zM143 825v30h216v-30h-216z" />
    <glyph glyph-name="umacron" unicode="&#x16b;" horiz-adv-x="407" 
d="M356 523v-523h-38v79h-2q-38 -91 -133 -91q-60 0 -96 35t-36 106v394h38v-376q0 -67 26.5 -96t77.5 -29q58 0 91.5 47t33.5 119v335h38zM98 651v30h216v-30h-216z" />
    <glyph glyph-name="Ubreve" unicode="&#x16c;" horiz-adv-x="500" 
d="M94 714v-525q0 -167 156 -167q76 0 116 45t40 122v525h42v-517q0 -111 -56.5 -160t-141.5 -49q-198 0 -198 209v517h42zM331 898h30q0 -43 -22 -74q-31 -42 -90 -42t-85.5 37t-26.5 79h30q0 -36 21 -60q24 -26 61 -26q39 0 60.5 24.5t21.5 61.5z" />
    <glyph glyph-name="ubreve" unicode="&#x16d;" horiz-adv-x="407" 
d="M356 523v-523h-38v79h-2q-38 -91 -133 -91q-60 0 -96 35t-36 106v394h38v-376q0 -67 26.5 -96t77.5 -29q58 0 91.5 47t33.5 119v335h38zM285 724h30q0 -43 -22 -74q-31 -42 -90 -42t-85.5 37t-26.5 79h30q0 -36 21 -60q24 -26 61 -26q39 0 60.5 24.5t21.5 61.5z" />
    <glyph glyph-name="Uring" unicode="&#x16e;" horiz-adv-x="500" 
d="M94 714v-525q0 -167 156 -167q76 0 116 45t40 122v525h42v-517q0 -111 -56.5 -160t-141.5 -49q-198 0 -198 209v517h42zM190 832q0 -25 17 -42.5t42 -17.5t42 17.5t17 42.5t-17 42.5t-42 17.5t-42 -17.5t-17 -42.5zM160 832q0 37 25.5 62.5t63.5 25.5t63.5 -25.5
t25.5 -62.5t-25.5 -62.5t-63.5 -25.5t-63.5 25.5t-25.5 62.5z" />
    <glyph glyph-name="uring" unicode="&#x16f;" horiz-adv-x="407" 
d="M356 523v-523h-38v79h-2q-38 -91 -133 -91q-60 0 -96 35t-36 106v394h38v-376q0 -67 26.5 -96t77.5 -29q58 0 91.5 47t33.5 119v335h38zM144 682q0 -25 17 -42.5t42 -17.5t42 17.5t17 42.5t-17 42.5t-42 17.5t-42 -17.5t-17 -42.5zM114 682q0 37 25.5 62.5t63.5 25.5
t63.5 -25.5t25.5 -62.5t-25.5 -62.5t-63.5 -25.5t-63.5 25.5t-25.5 62.5z" />
    <glyph glyph-name="Uhungarumlaut" unicode="&#x170;" horiz-adv-x="500" 
d="M94 714v-525q0 -167 156 -167q76 0 116 45t40 122v525h42v-517q0 -111 -56.5 -160t-141.5 -49q-198 0 -198 209v517h42zM302 770l78 140h48l-93 -140h-33zM168 770l78 140h48l-93 -140h-33z" />
    <glyph glyph-name="uhungarumlaut" unicode="&#x171;" horiz-adv-x="407" 
d="M356 523v-523h-38v79h-2q-38 -91 -133 -91q-60 0 -96 35t-36 106v394h38v-376q0 -67 26.5 -96t77.5 -29q58 0 91.5 47t33.5 119v335h38zM255 596l78 140h48l-93 -140h-33zM121 596l78 140h48l-93 -140h-33z" />
    <glyph glyph-name="Uogonek" unicode="&#x172;" horiz-adv-x="500" 
d="M94 714v-525q0 -167 156 -167q76 0 116 45t40 122v525h42v-517q0 -85 -34.5 -134t-91.5 -65q-28 -6 -38 -8q-35 -29 -52 -52q-20 -28 -20 -55q0 -26 13.5 -40.5t37.5 -14.5q27 0 46 16l10 -22q-25 -18 -64 -18q-77 0 -77 73q0 33 25 65q19 24 48 46h-1q-198 0 -198 209
v517h42z" />
    <glyph glyph-name="uogonek" unicode="&#x173;" horiz-adv-x="407" 
d="M356 0h-10q-45 -36 -65 -63t-20 -54q0 -26 13.5 -40.5t37.5 -14.5q27 0 46 16l10 -22q-26 -18 -64 -18q-77 0 -77 73q0 65 91 123v79h-2q-38 -91 -133 -91q-60 0 -96 35t-36 106v394h38v-376q0 -67 26.5 -96t77.5 -29q58 0 91.5 47t33.5 119v335h38v-523z" />
    <glyph glyph-name="Wcircumflex" unicode="&#x174;" horiz-adv-x="704" 
d="M485 0l-132 654h-2l-135 -654h-50l-155 714h42l137 -654h2l134 654h51l135 -654h2l137 654h42l-156 -714h-52zM237 770l94 140h42l94 -140h-42l-73 110l-73 -110h-42z" />
    <glyph glyph-name="wcircumflex" unicode="&#x175;" horiz-adv-x="537" 
d="M370 0l-99 469h-2l-103 -469h-48l-112 523h42l93 -469h2l103 469h48l99 -469h2l94 469h42l-113 -523h-48zM154 596l94 140h42l94 -140h-42l-73 110l-73 -110h-42z" />
    <glyph glyph-name="Ycircumflex" unicode="&#x176;" horiz-adv-x="444" 
d="M201 0v294l-195 420h46l170 -376l174 376h42l-195 -420v-294h-42zM109 770l94 140h42l94 -140h-42l-73 110l-73 -110h-42z" />
    <glyph glyph-name="ycircumflex" unicode="&#x177;" horiz-adv-x="352" 
d="M185 54l116 469h42l-162 -601q-15 -53 -42 -75.5t-74 -22.5q-13 0 -39 2v34q30 -2 33 -2q38 0 56 16t32 66l16 55l-154 528h42l132 -469h2zM69 596l94 140h42l94 -140h-42l-73 110l-73 -110h-42z" />
    <glyph glyph-name="Ydieresis" unicode="&#x178;" horiz-adv-x="444" 
d="M201 0v294l-195 420h46l170 -376l174 376h42l-195 -420v-294h-42zM135 789v102h42v-102h-42zM269 789v102h42v-102h-42z" />
    <glyph glyph-name="Zacute" unicode="&#x179;" horiz-adv-x="443" 
d="M17 0v42l363 634h-342v38h384v-42l-363 -634h367v-38h-409zM207 770l78 140h48l-93 -140h-33z" />
    <glyph glyph-name="zacute" unicode="&#x17a;" horiz-adv-x="334" 
d="M15 0v34l259 455h-245v34h287v-34l-259 -455h262v-34h-304zM151 596l78 140h48l-93 -140h-33z" />
    <glyph glyph-name="Zdotaccent" unicode="&#x17b;" horiz-adv-x="443" 
d="M17 0v42l363 634h-342v38h384v-42l-363 -634h367v-38h-409zM206 789v102h42v-102h-42z" />
    <glyph glyph-name="zdotaccent" unicode="&#x17c;" horiz-adv-x="334" 
d="M15 0v34l259 455h-245v34h287v-34l-259 -455h262v-34h-304zM149 615v102h42v-102h-42z" />
    <glyph glyph-name="Zcaron" unicode="&#x17d;" horiz-adv-x="443" 
d="M17 0v42l363 634h-342v38h384v-42l-363 -634h367v-38h-409zM207 770l-94 140h42l73 -110l73 110h42l-94 -140h-42z" />
    <glyph glyph-name="zcaron" unicode="&#x17e;" horiz-adv-x="334" 
d="M15 0v34l259 455h-245v34h287v-34l-259 -455h262v-34h-304zM151 596l-94 140h42l73 -110l73 110h42l-94 -140h-42z" />
    <glyph glyph-name="florin" unicode="&#x192;" horiz-adv-x="480" 
d="M126 406l6 34h103l24 111q8 38 17 62.5t25 50t43 38t64 12.5q32 0 50 -6l-8 -34q-18 6 -43 6q-80 0 -103 -112l-27 -128h113l-7 -34h-112l-89 -451q-13 -65 -51 -98t-95 -33q-18 0 -44 7l7 35q19 -8 36 -8q49 0 73 28t36 91l85 429h-103z" />
    <glyph glyph-name="Scommaaccent" unicode="&#x218;" horiz-adv-x="481" 
d="M77 220v-37q0 -70 43.5 -115.5t118.5 -45.5q73 0 119 46.5t46 115.5q0 65 -31 96.5t-99 56.5l-81 28q-75 25 -110 65t-35 110q0 85 53 135.5t138 50.5q96 0 143.5 -51t47.5 -143h-42q0 75 -36 117.5t-109 42.5q-67 0 -110 -35t-43 -113q0 -103 105 -138l106 -37
q74 -26 109.5 -66.5t35.5 -115.5q0 -93 -59.5 -146t-147.5 -53q-58 0 -100.5 18.5t-63.5 48.5t-30.5 59.5t-9.5 58.5v47h42zM213 -137v87h47v-85q0 -56 -52 -69v20q26 11 26 47h-21z" />
    <glyph glyph-name="scommaaccent" unicode="&#x219;" horiz-adv-x="352" 
d="M313 376h-38v15q0 110 -98 110q-45 0 -73 -24t-28 -73q0 -41 18.5 -64t59.5 -39l80 -30q95 -36 95 -139q0 -64 -43.5 -104t-107.5 -40q-155 0 -155 165v14h38v-17q0 -128 117 -128q55 0 82 31t27 78q0 40 -17.5 65t-60.5 42l-77 31q-51 21 -74.5 51.5t-23.5 79.5
q0 64 39 99.5t104 35.5q136 0 136 -143v-16zM152 -137v87h47v-85q0 -56 -52 -69v20q26 11 26 47h-21z" />
    <glyph glyph-name="uni021A" unicode="&#x21a;" 
d="M192 0v676h-190v38h422v-38h-190v-676h-42zM190 -137v87h47v-85q0 -56 -52 -69v20q26 11 26 47h-21z" />
    <glyph glyph-name="uni021B" unicode="&#x21b;" horiz-adv-x="204" 
d="M8 489v34h71v155h38v-155h87v-34h-87v-403q0 -58 46 -58q27 0 47 6v-34q-28 -6 -54 -6q-77 0 -77 88v407h-71zM116 -137v87h47v-85q0 -56 -52 -69v20q26 11 26 47h-21z" />
    <glyph glyph-name="circumflex" unicode="&#x2c6;" horiz-adv-x="148" 
d="M-41 596l94 140h42l94 -140h-42l-73 110l-73 -110h-42z" />
    <glyph glyph-name="caron" unicode="&#x2c7;" horiz-adv-x="148" 
d="M53 596l-94 140h42l73 -110l73 110h42l-94 -140h-42z" />
    <glyph glyph-name="uni02C9" unicode="&#x2c9;" horiz-adv-x="148" 
d="M-34 651v30h216v-30h-216z" />
    <glyph glyph-name="breve" unicode="&#x2d8;" horiz-adv-x="148" 
d="M156 724h30q0 -43 -22 -74q-31 -42 -90 -42t-85.5 37t-26.5 79h30q0 -36 21 -60q24 -26 61 -26q39 0 60.5 24.5t21.5 61.5z" />
    <glyph glyph-name="dotaccent" unicode="&#x2d9;" horiz-adv-x="148" 
d="M53 615v102h42v-102h-42z" />
    <glyph glyph-name="ring" unicode="&#x2da;" horiz-adv-x="148" 
d="M15 682q0 -25 17 -42.5t42 -17.5t42 17.5t17 42.5t-17 42.5t-42 17.5t-42 -17.5t-17 -42.5zM-15 682q0 37 25.5 62.5t63.5 25.5t63.5 -25.5t25.5 -62.5t-25.5 -62.5t-63.5 -25.5t-63.5 25.5t-25.5 62.5z" />
    <glyph glyph-name="ogonek" unicode="&#x2db;" horiz-adv-x="148" 
d="M116 0h28q-45 -36 -65 -63t-20 -54q0 -26 13.5 -40.5t37.5 -14.5q27 0 46 16l10 -22q-25 -18 -64 -18q-77 0 -77 73q0 65 91 123z" />
    <glyph glyph-name="tilde" unicode="&#x2dc;" horiz-adv-x="148" 
d="M166 711h30q0 -30 -16.5 -58t-51.5 -28q-25 -1 -59 25t-49 26q-38 0 -38 -55h-30q0 29 16.5 57t51.5 28q27 1 59 -25q34 -26 49 -26q21 0 29.5 18t8.5 38z" />
    <glyph glyph-name="hungarumlaut" unicode="&#x2dd;" horiz-adv-x="148" 
d="M98 596l78 140h48l-93 -140h-33zM-36 596l78 140h48l-93 -140h-33z" />
    <glyph glyph-name="uni0394" unicode="&#x394;" horiz-adv-x="639" 
d="M572 35l-255 632l-252 -632h507zM626 0h-612l287 712h34z" />
    <glyph glyph-name="uni03A9" unicode="&#x3a9;" horiz-adv-x="731" 
d="M671 0h-230v166q92 15 143 84t51 165q0 115 -79 193.5t-194 78.5q-114 0 -192.5 -79t-78.5 -193q0 -95 52 -166t143 -83v-166h-232v33h200v105q-95 26 -147 101.5t-52 176.5q0 129 89.5 217t218.5 88t218.5 -88t89.5 -216q0 -102 -50.5 -176t-147.5 -103v-105h198v-33z
" />
    <glyph glyph-name="uni03BC" unicode="&#x3bc;" horiz-adv-x="407" 
d="M356 523v-523h-38v79h-2q-38 -91 -133 -91q-55 0 -92 48h-2v-212h-38v699h38v-376q0 -67 26.5 -96t77.5 -29q58 0 91.5 47t33.5 119v335h38z" />
    <glyph glyph-name="pi" unicode="&#x3c0;" horiz-adv-x="556" 
d="M525 41v-31q-32 -15 -51 -15t-32.5 6.5t-20 14.5t-9.5 24.5t-3.5 26.5t-0.5 31v334h-286v-432h-36v432h-70v32h504v-32h-76v-337v-23q0 -44 38 -44q23 0 43 13z" />
    <glyph glyph-name="endash" unicode="&#x2013;" horiz-adv-x="500" 
d="M0 255v34h500v-34h-500z" />
    <glyph glyph-name="emdash" unicode="&#x2014;" horiz-adv-x="1000" 
d="M0 255v34h1000v-34h-1000z" />
    <glyph glyph-name="quoteleft" unicode="&#x2018;" horiz-adv-x="184" 
d="M67 484v100q0 56 13 84t45 46v-34q-28 -21 -28 -94h12v-102h-42z" />
    <glyph glyph-name="quoteright" unicode="&#x2019;" horiz-adv-x="184" 
d="M117 714v-100q0 -57 -13 -84t-45 -46v34q28 21 28 94h-12v102h42z" />
    <glyph glyph-name="quotesinglbase" unicode="&#x201a;" horiz-adv-x="184" 
d="M117 102v-100q0 -57 -13 -84t-45 -46v34q28 21 28 94h-12v102h42z" />
    <glyph glyph-name="quotedblleft" unicode="&#x201c;" horiz-adv-x="296" 
d="M67 484v100q0 56 13 84t45 46v-34q-28 -21 -28 -94h12v-102h-42zM179 484v100q0 56 13 84t45 46v-34q-28 -21 -28 -94h12v-102h-42z" />
    <glyph glyph-name="quotedblright" unicode="&#x201d;" horiz-adv-x="296" 
d="M229 714v-100q0 -57 -13 -84t-45 -46v34q28 21 28 94h-12v102h42zM117 714v-100q0 -57 -13 -84t-45 -46v34q28 21 28 94h-12v102h42z" />
    <glyph glyph-name="quotedblbase" unicode="&#x201e;" horiz-adv-x="296" 
d="M229 102v-100q0 -57 -13 -84t-45 -46v34q28 21 28 94h-12v102h42zM117 102v-100q0 -57 -13 -84t-45 -46v34q28 21 28 94h-12v102h42z" />
    <glyph glyph-name="dagger" unicode="&#x2020;" horiz-adv-x="480" 
d="M259 -151h-38v600h-180v34h180v231h38v-231h180v-34h-180v-600z" />
    <glyph glyph-name="daggerdbl" unicode="&#x2021;" horiz-adv-x="480" 
d="M259 -151h-38v217h-180v34h180v369h-180v34h180v211h38v-211h180v-34h-180v-369h180v-34h-180v-217z" />
    <glyph glyph-name="bullet" unicode="&#x2022;" horiz-adv-x="500" 
d="M72 357q0 74 52 126t126 52t126 -52t52 -126t-52 -126t-126 -52t-126 52t-52 126z" />
    <glyph glyph-name="ellipsis" unicode="&#x2026;" horiz-adv-x="1000" 
d="M812 0v102h42v-102h-42zM479 0v102h42v-102h-42zM146 0v102h42v-102h-42z" />
    <glyph glyph-name="perthousand" unicode="&#x2030;" horiz-adv-x="963" 
d="M577 165q0 83 -22 115t-66 32q-88 0 -88 -147q0 -83 22 -115t66 -32q42 0 64 32t24 115zM367 165q0 177 122 177q69 0 95.5 -43t26.5 -134q0 -177 -122 -177q-69 0 -95.5 42.5t-26.5 134.5zM48 531q0 177 122 177q69 0 95.5 -43t26.5 -134q0 -177 -122 -177
q-69 0 -95.5 42.5t-26.5 134.5zM671 165q0 177 122 177q69 0 95.5 -43t26.5 -134q0 -177 -122 -177q-69 0 -95.5 42.5t-26.5 134.5zM258 531q0 83 -22 115t-66 32q-88 0 -88 -147q0 -83 22 -115t66 -32q42 0 64 32t24 115zM159 -12l303 720h34l-303 -720h-34zM881 165
q0 83 -22 115t-66 32q-88 0 -88 -147q0 -83 22 -115t66 -32q42 0 64 32t24 115z" />
    <glyph glyph-name="guilsinglleft" unicode="&#x2039;" horiz-adv-x="222" 
d="M168 116l-114 135v38l114 139v-50l-84 -108l84 -104v-50z" />
    <glyph glyph-name="guilsinglright" unicode="&#x203a;" horiz-adv-x="222" 
d="M54 116v50l84 108l-84 104v50l114 -135v-38z" />
    <glyph glyph-name="fraction" unicode="&#x2044;" horiz-adv-x="167" 
d="M-163 -32l459 760h34l-459 -760h-34z" />
    <glyph glyph-name="Euro" unicode="&#x20ac;" horiz-adv-x="480" 
d="M480 618l-20 -44q-20 46 -58 73q-41 27 -98 27q-74 0 -117 -43q-57 -59 -64 -207h279l-14 -34h-267q-2 -41 0 -82h235l-14 -34h-220q6 -151 73 -212q43 -40 112 -40q53 0 94 25q44 26 69 69v-60q-28 -31 -63 -46q-46 -22 -105 -22q-87 0 -138 47q-81 72 -84 239h-76
l14 34h61q-1 39 0 82h-75l14 34h63q9 159 77 231q52 53 144 53q80 0 123 -30q35 -23 55 -60z" />
    <glyph glyph-name="afii61289" unicode="&#x2113;" horiz-adv-x="500" 
d="M396 35q-49 -49 -110 -49q-48 0 -79 29t-31 90v148l-60 -68h-2l-15 19l77 83v269q0 79 30.5 122t75.5 43q40 0 65 -31t25 -87q0 -141 -161 -324v-168q0 -53 24 -74.5t57 -21.5q49 0 88 39h2zM342 599q0 43 -17.5 69t-42.5 26q-30 0 -50.5 -33.5t-20.5 -100.5v-246
q131 157 131 285z" />
    <glyph glyph-name="trademark" unicode="&#x2122;" horiz-adv-x="1000" 
d="M848 302v378h-2l-165 -378h-18l-165 378h-2v-378h-34v412h58l152 -348l154 348h56v-412h-34zM204 302v378h-142v34h318v-34h-142v-378h-34z" />
    <glyph glyph-name="Omega" unicode="&#x2126;" horiz-adv-x="731" 
d="M671 0h-230v166q92 15 143 84t51 165q0 115 -79 193.5t-194 78.5q-114 0 -192.5 -79t-78.5 -193q0 -95 52 -166t143 -83v-166h-232v33h200v105q-95 26 -147 101.5t-52 176.5q0 129 89.5 217t218.5 88t218.5 -88t89.5 -216q0 -102 -50.5 -176t-147.5 -103v-105h198v-33z
" />
    <glyph glyph-name="estimated" unicode="&#x212e;" horiz-adv-x="600" 
d="M561 259h-404v-181q59 -59 145 -59q122 0 193 120l35 -21q-46 -72 -98 -103.5t-130 -31.5q-115 0 -186.5 79t-71.5 197q0 119 71 197.5t187 78.5q115 0 186.5 -77t72.5 -199zM157 295h291v145q-63 60 -147 60t-144 -60v-145z" />
    <glyph glyph-name="partialdiff" unicode="&#x2202;" horiz-adv-x="463" 
d="M384 284q-77 105 -171 105q-71 0 -110.5 -53.5t-39.5 -126.5q0 -71 40 -130.5t108 -59.5q45 0 79 26.5t53 70t28 84.5t13 84zM424 369q0 -47 -4.5 -92.5t-18.5 -100t-36 -94.5t-62 -67t-93 -27q-83 0 -133 68t-50 154q0 88 49.5 149.5t135.5 61.5q103 0 176 -97
q0 10 0.5 30.5t0.5 30.5q0 49 -9 98t-29 97t-59 78t-92 30q-55 0 -115 -45l-20 26q65 52 134 52q52 0 92.5 -23.5t65 -59.5t40 -84.5t21.5 -93.5t6 -91z" />
    <glyph glyph-name="Delta" unicode="&#x2206;" horiz-adv-x="639" 
d="M572 35l-255 632l-252 -632h507zM626 0h-612l287 712h34z" />
    <glyph glyph-name="product" unicode="&#x220f;" horiz-adv-x="704" 
d="M621 -214h-36v965h-466v-965h-36v1000h538v-1000z" />
    <glyph glyph-name="summation" unicode="&#x2211;" horiz-adv-x="593" 
d="M558 -214h-523v32l338 471l-324 464v33h497v-35h-451l322 -462l-338 -468h479v-35z" />
    <glyph glyph-name="minus" unicode="&#x2212;" horiz-adv-x="600" 
d="M553 236h-506v34h506v-34z" />
    <glyph glyph-name="uni2215" unicode="&#x2215;" horiz-adv-x="167" 
d="M-163 -32l459 760h34l-459 -760h-34z" />
    <glyph glyph-name="uni2219" unicode="&#x2219;" horiz-adv-x="240" 
d="M69 330q0 21 15 36t36 15t36 -15t15 -36t-15 -36t-36 -15t-36 15t-15 36z" />
    <glyph glyph-name="radical" unicode="&#x221a;" horiz-adv-x="463" 
d="M467 782l-215 -999h-32l-178 366l-44 -21l-13 27l73 36l173 -359l203 950h33z" />
    <glyph glyph-name="infinity" unicode="&#x221e;" horiz-adv-x="722" 
d="M338 243l-28 23.5t-34.5 28.5t-32 22.5t-39 19.5t-36.5 6q-40 0 -64 -28.5t-24 -69.5q0 -44 24.5 -71t68.5 -27q30 0 63.5 17.5t52.5 33.5t49 45zM642 245q0 43 -24.5 70.5t-66.5 27.5q-11 0 -23 -3t-22 -7t-23 -12l-21.5 -13.5t-22.5 -17l-19.5 -16t-19.5 -17t-17 -14.5
q2 -2 17 -15.5t19.5 -17t18.5 -15.5t21 -16t20.5 -12.5t23 -11.5t22 -6t24.5 -3q44 0 68.5 27t24.5 72zM675 246q0 -58 -34 -95.5t-92 -37.5q-14 0 -28.5 3t-25.5 7t-25.5 12.5l-23 13.5t-23.5 17.5t-20.5 17.5l-21.5 19.5t-20 18.5q-6 -5 -32 -28.5t-37 -31.5t-33.5 -22.5
t-42.5 -20t-43 -5.5q-56 0 -91 36.5t-35 93.5q0 55 34.5 93.5t88.5 38.5q21 0 41.5 -5.5t45 -22l34.5 -23.5t39 -32.5t31 -27.5q3 3 22 20l25.5 22.5t24.5 19.5t28.5 20t27 14.5t31 11.5t29.5 3q56 0 91 -36.5t35 -93.5z" />
    <glyph glyph-name="integral" unicode="&#x222b;" horiz-adv-x="534" 
d="M374 750q0 -12 -7.5 -19t-19.5 -7q-17 0 -27 15.5t-16 15.5q-43 0 -43 -191v-24l1 -476q0 -7 0.5 -29t0.5 -36.5t-1 -39t-4 -42l-7 -39.5t-12 -36.5t-18.5 -28t-26 -20t-34.5 -6.5q-17 0 -29 9t-12 25q0 10 8 17.5t18 7.5q9 0 21 -13t19 -13q41 0 41 181v23v491
q0 6 -1 37.5t0 49.5t3 49.5t8.5 51.5t17 41t29 31.5t42.5 10.5q49 0 49 -36z" />
    <glyph glyph-name="approxequal" unicode="&#x2248;" horiz-adv-x="593" 
d="M520 220h27q-11 -50 -39.5 -83t-75.5 -33q-42 0 -145 38t-138 38q-34 0 -58 -24.5t-30 -58.5h-29q11 50 39.5 83t76.5 33q43 0 145 -38t137 -38q34 0 57.5 24t32.5 59zM520 383h27q-27 -115 -115 -115q-44 0 -145.5 38t-137.5 38q-33 0 -57 -24.5t-31 -59.5h-29
q11 50 39.5 83t76.5 33q42 0 142 -37.5t140 -37.5q34 0 57.5 23.5t32.5 58.5z" />
    <glyph glyph-name="notequal" unicode="&#x2260;" horiz-adv-x="593" 
d="M541 133h-286l-75 -141l-29 15l67 126h-166v33h184l80 150h-264v33h282l76 143l29 -15l-68 -128h170v-33h-188l-81 -150h269v-33z" />
    <glyph glyph-name="lessequal" unicode="&#x2264;" horiz-adv-x="593" 
d="M541 -14h-489v33h489v-33zM541 61l-489 199v36l489 200v-37l-445 -181l445 -180v-37z" />
    <glyph glyph-name="greaterequal" unicode="&#x2265;" horiz-adv-x="593" 
d="M541 -14h-489v33h489v-33zM541 260l-489 -199v37l446 180l-446 181v37l489 -200v-36z" />
    <glyph glyph-name="lozenge" unicode="&#x25ca;" horiz-adv-x="593" 
d="M444 356l-148 346l-148 -346l148 -346zM481 356l-170 -391h-30l-169 391l169 391h30z" />
    <glyph glyph-name="commaaccent" unicode="&#xf004;" horiz-adv-x="240" 
d="M94 -137v87h47v-85q0 -56 -52 -69v20q26 11 26 47h-21z" />
    <glyph glyph-name="commaaccent" unicode="&#xf6c3;" horiz-adv-x="240" 
d="M94 -137v87h47v-85q0 -56 -52 -69v20q26 11 26 47h-21z" />
    <glyph glyph-name="dotlessj" unicode="&#xf6be;" horiz-adv-x="148" 
d="M-38 -176v34q18 -2 28 -2q19 0 31.5 4t23 21.5t10.5 48.5v593h38v-589q0 -112 -95 -112q-12 0 -36 2z" />
    <glyph glyph-name="dotlessj" unicode="&#xfb0f;" horiz-adv-x="148" 
d="M-38 -176v34q18 -2 28 -2q19 0 31.5 4t23 21.5t10.5 48.5v593h38v-589q0 -112 -95 -112q-12 0 -36 2z" />
    <glyph glyph-name="uniF8FF" unicode="&#xf8ff;" horiz-adv-x="512" 
d="M222 117h56v67h-56v-67zM225 234h46q0 52 6 72q6 19 43 52q37 34 50 60t13 60q0 59 -35 95t-89 36q-56 0 -92 -34t-43 -103l50 -8q11 95 82 95q31 0 53.5 -24.5t22.5 -60.5q0 -20 -9.5 -37t-40.5 -46q-31 -31 -46 -59q-13 -25 -13 -81zM462 50h-412v617h412v-617z
M512 718h-512v-718h512v718z" />
    <glyph glyph-name="commaaccent.alt" horiz-adv-x="240" 
d="M138 714v-87h-47v85q0 56 52 69v-20q-26 -11 -26 -47h21z" />
    <glyph glyph-name="caron.alt" horiz-adv-x="148" 
d="M60 574l28 140h47l-47 -140h-28z" />
    <glyph glyph-name="grave.cap" horiz-adv-x="148" 
d="M38 910l78 -140h-33l-93 140h48z" />
    <glyph glyph-name="acute.cap" horiz-adv-x="148" 
d="M34 770l78 140h48l-93 -140h-33z" />
    <glyph glyph-name="circumflex.cap" horiz-adv-x="148" 
d="M-41 770l94 140h42l94 -140h-42l-73 110l-73 -110h-42z" />
    <glyph glyph-name="caron.cap" horiz-adv-x="148" 
d="M53 770l-94 140h42l73 -110l73 110h42l-94 -140h-42z" />
    <glyph glyph-name="tilde.cap" horiz-adv-x="148" 
d="M166 885h30q0 -30 -16.5 -58t-51.5 -28q-25 -1 -59 25t-49 26q-38 0 -38 -55h-30q0 29 16.5 57t51.5 28q27 1 59 -25q34 -26 49 -26q21 0 29.5 18t8.5 38z" />
    <glyph glyph-name="dieresis.cap" horiz-adv-x="148" 
d="M-14 789v102h42v-102h-42zM120 789v102h42v-102h-42z" />
    <glyph glyph-name="macron.cap" horiz-adv-x="148" 
d="M-34 825v30h216v-30h-216z" />
    <glyph glyph-name="breve.cap" horiz-adv-x="148" 
d="M156 898h30q0 -43 -22 -74q-31 -42 -90 -42t-85.5 37t-26.5 79h30q0 -36 21 -60q24 -26 61 -26q39 0 60.5 24.5t21.5 61.5z" />
    <glyph glyph-name="ring.cap" horiz-adv-x="148" 
d="M15 832q0 -25 17 -42.5t42 -17.5t42 17.5t17 42.5t-17 42.5t-42 17.5t-42 -17.5t-17 -42.5zM-15 832q0 37 25.5 62.5t63.5 25.5t63.5 -25.5t25.5 -62.5t-25.5 -62.5t-63.5 -25.5t-63.5 25.5t-25.5 62.5z" />
    <glyph glyph-name="hungarumlaut.cap" horiz-adv-x="148" 
d="M98 770l78 140h48l-93 -140h-33zM-36 770l78 140h48l-93 -140h-33z" />
    <glyph glyph-name="dotaccent.cap" horiz-adv-x="148" 
d="M53 789v102h42v-102h-42z" />
    </font>
</defs>
</svg>
